<svg width="34" height="34" viewBox="0 0 34 34" fill="none" xmlns="http://www.w3.org/2000/svg">
<path d="M31.8333 0.333496H2.16665C1.68042 0.333496 1.2141 0.52665 0.870284 0.870467C0.526467 1.21428 0.333313 1.6806 0.333313 2.16683V31.8335C0.333313 32.0743 0.380734 32.3127 0.472867 32.5351C0.565001 32.7575 0.700043 32.9596 0.870284 33.1299C1.04052 33.3001 1.24263 33.4351 1.46506 33.5273C1.68749 33.6194 1.92589 33.6668 2.16665 33.6668H18.1333V20.7502H13.8V15.7502H18.1333V12.0002C18.0436 11.1198 18.1475 10.2304 18.4378 9.39439C18.7282 8.55841 19.1979 7.79607 19.8141 7.16085C20.4303 6.52562 21.1779 6.0329 22.0047 5.71723C22.8314 5.40155 23.7173 5.27058 24.6 5.3335C25.8972 5.32551 27.1938 5.39229 28.4833 5.5335V10.0335H25.8333C23.7333 10.0335 23.3333 11.0335 23.3333 12.4835V15.7002H28.3333L27.6833 20.7002H23.3333V33.6668H31.8333C32.0741 33.6668 32.3125 33.6194 32.5349 33.5273C32.7573 33.4351 32.9594 33.3001 33.1297 33.1299C33.2999 32.9596 33.435 32.7575 33.5271 32.5351C33.6192 32.3127 33.6666 32.0743 33.6666 31.8335V2.16683C33.6666 1.92607 33.6192 1.68767 33.5271 1.46524C33.435 1.24281 33.2999 1.04071 33.1297 0.870467C32.9594 0.700226 32.7573 0.565184 32.5349 0.47305C32.3125 0.380917 32.0741 0.333496 31.8333 0.333496Z" fill="#FFAF00"/>
</svg>
