<svg width="236" height="387" viewBox="0 0 236 387" fill="none" xmlns="http://www.w3.org/2000/svg">
<path d="M52.0265 367.027C46.2503 367.841 40.108 368.939 35.2267 370.119C32.8267 370.688 30.7115 371.339 29.2471 371.705C27.7827 372.112 26.9285 372.438 26.9285 372.438C26.9285 372.438 25.2607 373.048 22.698 373.983C20.1354 375.041 16.7185 376.505 13.3015 378.336C11.5931 379.19 9.88463 380.207 8.29821 381.183C6.71178 382.159 5.28807 383.054 4.02707 383.99C1.6271 385.78 0 387 0 387C0 387 1.66778 385.861 4.1491 384.112C5.41011 383.217 6.8745 382.363 8.46092 381.427C10.0473 380.492 11.7965 379.515 13.5049 378.743C16.9625 376.993 20.3794 375.692 22.9421 374.715C25.4641 373.861 27.1319 373.332 27.1319 373.332C27.1319 373.332 27.9861 373.007 29.4098 372.56C30.8335 372.153 32.9081 371.502 35.3081 370.851C40.1487 369.549 46.291 368.329 52.0265 367.434C62.5213 365.888 73.0161 364.302 73.0161 364.302C73.0161 364.302 62.5213 365.685 52.0265 367.027Z" fill="#4F4F4F"/>
<path d="M140.622 31.438C140.256 30.4617 139.768 29.4855 139.768 29.4855C139.768 29.4855 139.361 29.0787 138.954 28.6719C138.547 28.2651 138.141 27.899 138.141 27.899C138.141 27.899 138.385 28.3872 138.547 28.8753C138.71 29.3634 138.914 29.8516 138.914 29.8516C138.914 29.8516 139.564 30.7058 140.175 31.56C140.459 32.0075 140.744 32.4549 140.947 32.7803C141.151 33.1058 141.232 33.3498 141.232 33.3498C141.232 33.3498 141.191 33.1058 141.069 32.7397C140.988 32.4549 140.825 31.9668 140.622 31.438Z" fill="#4F4F4F"/>
<path d="M232.472 242.514C231.902 242.839 231.333 243.205 230.845 243.571C231.618 241.903 232.269 240.195 232.716 238.608C233.326 236.534 233.692 234.663 233.733 233.32C233.774 232.67 233.814 232.141 233.814 231.775C233.814 231.409 233.814 231.205 233.814 231.205C233.814 231.205 233.814 231.409 233.774 231.775C233.774 232.141 233.733 232.67 233.692 233.32C233.611 234.622 233.204 236.493 232.594 238.486C232.025 240.276 231.252 242.188 230.275 244.019C229.787 244.425 229.421 244.71 229.421 244.71C229.096 245.076 228.77 245.483 228.445 245.89C228.811 243.327 228.73 240.724 228.608 238.161C228.486 235.598 228.079 233.076 227.469 230.636C227.753 232.019 227.957 233.402 228.119 234.825C228.242 236.249 228.282 237.632 228.282 239.056C228.282 241.863 228.079 244.669 227.469 247.313L227.143 248.859C226.655 249.51 226.208 250.161 225.72 250.812C224.296 252.764 222.75 254.676 221.367 256.588C219.984 258.5 218.845 260.452 217.909 262.201C216.933 263.951 216.16 265.415 215.632 266.473C215.103 267.53 214.818 268.1 214.818 268.1C214.818 268.1 214.777 268.181 214.737 268.262C215.225 266.676 215.632 265.09 215.632 265.09C215.632 265.09 215.754 264.195 215.916 262.893C216.12 261.591 216.16 259.801 216.201 258.052C216.242 256.303 216.16 254.554 216.079 253.252C215.998 251.951 215.835 251.096 215.835 251.096C215.835 251.096 215.916 251.951 215.916 253.252C215.916 254.554 215.835 256.303 215.713 258.012C215.55 259.72 215.428 261.469 215.143 262.73C214.899 263.991 214.696 264.845 214.696 264.845C214.696 264.845 214.493 266.554 214.208 268.262C214.086 268.873 214.004 269.442 213.882 269.971C213.679 270.378 213.435 270.825 213.191 271.354C212.093 273.428 210.669 276.357 208.594 279.652C204.608 286.323 198.262 294.255 191.184 300.479C188.988 302.35 186.872 304.099 184.676 305.604C183.781 305.686 183.212 305.767 183.212 305.767C183.212 305.767 183.7 305.767 184.391 305.767C181.828 307.475 179.388 309.021 176.988 310.282C174.547 311.503 172.31 312.52 170.276 313.333C167.307 314.472 164.744 315.164 163.035 315.611C161.856 315.896 161.002 316.099 160.595 316.18C161.774 314.513 162.913 312.886 164.052 311.299C165.151 309.672 166.127 307.964 167.144 306.377C168.73 303.855 169.991 301.252 171.374 298.852C172.635 296.411 173.815 294.093 174.913 291.937C175.93 289.74 176.947 287.788 177.883 286.038C178.696 284.249 179.469 282.703 180.161 281.483C180.649 280.506 181.137 279.733 181.422 279.123L181.056 279.937L181.584 278.757C181.625 278.716 181.666 278.635 181.666 278.554C181.991 277.862 182.195 277.496 182.195 277.496C182.195 277.496 181.991 277.862 181.666 278.513C181.666 278.513 182.723 276.032 184.31 272.371C185.042 270.459 185.856 268.262 186.75 265.862C187.523 263.462 188.378 260.859 189.15 258.215C189.842 255.571 190.615 252.886 191.184 250.364C191.713 247.842 192.242 245.442 192.608 243.368C193.259 239.219 193.706 236.453 193.706 236.453C193.706 236.453 193.747 235.842 193.869 234.703C194.154 234.256 194.439 233.727 194.723 233.158C195.537 231.612 196.31 229.944 196.31 229.944C196.31 229.944 196.635 229.049 197.042 227.748C197.449 226.446 197.937 224.656 198.547 222.948C199.157 221.239 199.889 219.571 200.459 218.392C200.744 217.822 201.028 217.334 201.232 217.009C201.435 216.683 201.557 216.521 201.557 216.521C201.557 216.521 201.435 216.683 201.232 216.968C200.988 217.253 200.703 217.7 200.377 218.229C199.727 219.327 198.913 220.914 198.181 222.582C197.449 224.249 196.798 225.958 196.35 227.219C195.903 228.48 195.537 229.293 195.537 229.293C195.537 229.293 195.008 231.083 194.398 232.751L194.032 233.768C194.072 233.361 194.113 232.873 194.154 232.385C194.235 231.124 194.439 229.537 194.561 227.788C194.642 225.998 194.764 224.005 194.927 221.768C195.089 219.571 195.13 217.212 195.374 214.649C195.455 213.592 195.577 212.494 195.577 211.355C195.944 210.5 196.554 209.199 197.367 207.612C198.059 206.189 198.954 204.48 199.686 202.609C200.418 200.738 201.11 198.582 201.72 196.385C202.899 191.951 203.469 187.233 203.957 183.653C204.323 180.074 204.567 177.714 204.567 177.714C204.567 177.714 204.689 176.494 204.771 174.379C204.852 172.263 204.933 169.213 204.974 165.511C204.974 163.436 204.893 161.118 204.771 158.677C206.235 154.487 207.374 150.135 209.449 146.433L208.879 145.904C208.31 146.637 207.699 147.328 207.13 148.02C207.333 147.41 207.455 147.003 207.455 147.003C207.455 147.003 207.537 145.986 207.537 144.969C207.537 143.952 207.455 142.935 207.455 142.935C207.455 142.935 207.252 143.789 206.967 144.603C206.723 145.416 206.357 146.189 206.357 146.189C206.357 146.189 206.113 147.938 205.706 149.565C205.218 150.094 204.689 150.582 204.16 151.111C203.754 146.84 203.103 142.366 202.127 137.85C201.232 134.108 200.377 130.447 199.483 126.786C199.605 125.85 199.767 124.956 199.849 123.979L201.516 119.952L201.923 116.251L200.418 119.139L200.174 120.318C200.296 118.447 200.377 116.657 200.418 115.071C200.418 114.42 200.459 113.81 200.459 113.24V113.2C200.459 111.532 200.418 110.23 200.418 109.457C200.459 108.807 200.499 108.115 200.54 107.22C200.662 104.82 200.744 101.566 200.581 98.3525C200.459 95.1389 200.215 91.8847 199.889 89.4848C199.564 87.0848 199.32 85.4577 199.32 85.4577C199.32 85.4577 198.669 82.2849 197.774 79.1934C197.042 76.5087 196.147 73.9053 195.944 73.2545C195.903 73.1324 195.903 73.0917 195.903 73.0917C195.903 73.0917 195.903 73.1731 195.944 73.2545C196.106 73.946 196.798 76.59 197.367 79.3154C198.059 82.4476 198.466 85.6204 198.466 85.6204C198.466 85.6204 198.75 87.2068 199.157 89.5661C199.564 91.9254 199.93 95.1389 200.133 98.3525C200.337 101.159 200.418 103.966 200.418 106.244C200.255 106.366 199.971 106.61 199.686 106.813C199.238 105.024 198.222 102.908 196.879 101.037C195.496 99.044 193.95 97.3355 192.811 96.0339C191.672 94.7322 190.981 93.7966 190.981 93.7966C189.801 92.3729 188.703 90.8678 187.889 89.1594L187.401 89.6882C187.93 91.0712 188.215 92.5356 188.459 94.0406C189.028 97.9457 188.947 102.054 190.086 105.959C190.411 107.139 190.9 108.237 191.469 109.254C191.55 109.417 191.632 109.579 191.713 109.701C192.039 110.23 192.445 110.718 192.811 111.166C193.3 111.695 193.788 112.223 194.316 112.671C196.228 114.339 198.222 116.007 200.133 117.674C198.222 115.966 196.31 114.217 194.439 112.508C193.503 111.613 192.608 110.678 191.957 109.539C191.266 108.4 190.778 107.139 190.452 105.837C189.272 101.525 189.679 96.8881 188.866 92.3729C189.394 93.1864 189.964 93.9186 190.533 94.6508C190.533 94.6508 191.306 95.5457 192.486 96.8067C193.666 98.0677 195.293 99.6542 196.716 101.525C197.855 102.99 198.791 104.617 199.401 106.122C199.523 106.447 199.645 106.773 199.727 107.098C199.686 107.098 199.686 107.139 199.645 107.139C199.767 107.627 199.849 108.074 199.93 108.563C199.971 108.481 199.971 108.4 200.011 108.318C200.093 108.766 200.174 109.132 200.215 109.457C200.255 109.986 200.296 110.312 200.296 110.312C200.296 110.312 200.296 109.986 200.255 109.457C200.215 109.132 200.174 108.644 200.093 108.156C200.174 107.952 200.215 107.749 200.296 107.546C200.377 107.261 200.459 106.976 200.54 106.773C200.54 106.976 200.54 107.179 200.54 107.342C200.499 108.522 200.499 109.539 200.459 110.271C200.418 110.962 200.418 111.369 200.418 111.369C200.418 111.369 200.459 110.962 200.499 110.271C200.499 110.759 200.459 111.369 200.459 112.061C200.459 112.468 200.418 112.874 200.418 113.362C200.337 114.705 200.255 116.251 200.133 117.918C200.011 119.627 199.849 121.417 199.605 123.206C199.523 123.939 199.401 124.671 199.279 125.403L199.238 125.525L198.71 123.288C198.14 120.522 197.611 117.959 197.164 115.559C197.083 115.478 197.001 115.396 196.879 115.315C197.286 117.756 197.774 120.359 198.344 123.206C198.547 124.264 198.791 125.322 199.035 126.42C198.913 127.071 198.791 127.681 198.669 128.291C198.344 129.918 197.937 131.423 197.611 132.684C196.92 135.247 196.472 136.955 196.472 136.955C196.472 136.955 196.269 137.81 195.903 139.355C195.537 140.86 195.089 143.057 194.561 145.66C193.503 150.908 192.689 158.026 192.242 165.145C191.794 172.263 191.713 179.423 191.794 184.751C191.794 185.646 191.794 186.46 191.835 187.273C190.289 181.945 189.395 176.494 188.54 171.45C187.645 165.836 186.75 160.589 185.53 156.033C185.164 154.772 184.798 153.592 184.432 152.454C184.513 152.087 184.635 151.437 184.798 150.542C185.083 149.077 185.449 147.043 185.734 144.521C186.018 141.999 186.344 138.949 186.303 135.613C186.262 132.318 185.896 128.535 185.205 124.874C184.554 121.173 183.7 117.43 182.845 113.973C182.032 110.474 181.178 107.261 180.445 104.535C179.429 100.834 178.656 97.9864 178.249 96.522L178.656 93.4712L177.964 85.0916L177.517 93.0644L177.801 94.9356C177.598 94.244 177.11 92.7796 176.54 90.8678C175.686 88.1831 174.507 84.5221 173.286 80.9832C173.001 80.2103 172.717 79.3968 172.473 78.6239C172.391 78.1357 172.31 77.6069 172.31 77.1188C172.31 77.1188 172.31 76.9968 172.269 76.7934C172.229 76.59 172.188 76.2646 172.188 75.9392C172.147 75.207 172.188 74.2714 172.351 73.4172C172.513 72.5629 172.879 71.7494 173.164 71.2206C173.327 70.9358 173.449 70.7324 173.571 70.5697C173.693 70.407 173.734 70.3257 173.734 70.3257C173.734 70.3257 173.652 70.407 173.53 70.5291C173.408 70.6511 173.205 70.8138 173.001 71.0579C172.595 71.546 172.107 72.2375 171.781 73.0917C171.496 73.8239 171.293 74.6375 171.212 75.329C170.602 73.8239 170.073 72.4002 169.585 71.2206C168.486 68.5765 167.673 66.8681 167.673 66.8681C167.673 66.8681 168.405 68.6172 169.422 71.2613C169.951 72.685 170.52 74.3121 171.13 76.1019C171.13 76.2646 171.13 76.4273 171.13 76.5087C171.13 76.712 171.13 76.8747 171.13 76.8747C171.252 77.8103 171.456 78.7866 171.781 79.7629C169.503 76.9968 166.818 74.6782 163.93 72.9697C167.388 75.2883 170.52 78.5425 172.757 82.1221L173.042 82.0408C174.018 85.2543 174.913 88.4678 175.605 90.9085C176.337 93.6339 176.866 95.4237 176.866 95.4237C176.866 95.4237 177.151 96.3186 177.598 97.9457C178.045 99.5321 178.737 101.81 179.51 104.576C179.795 105.674 180.12 106.813 180.486 108.034L180.161 107.424C179.51 106.163 178.859 104.942 178.859 104.942C178.859 104.942 177.191 102.624 175.401 100.468C173.612 98.2711 171.781 96.1966 171.781 96.1966C171.781 96.1966 173.449 98.4338 175.035 100.712C176.622 102.99 178.045 105.39 178.045 105.39C178.045 105.39 178.9 106.488 179.754 107.627C180.12 108.115 180.486 108.603 180.771 109.01C181.178 110.596 181.625 112.305 182.113 114.054C183.008 117.512 183.944 121.213 184.676 124.956C185.408 128.617 185.856 132.359 185.978 135.694C186.059 137.322 186.018 138.908 185.937 140.413C185.896 140.413 185.896 140.372 185.856 140.372C185.734 140.291 185.53 140.128 185.367 139.925C185.001 139.477 184.635 138.786 184.31 138.094C183.984 137.403 183.7 136.711 183.496 136.142C183.293 135.613 183.13 135.247 183.13 135.247C183.13 135.247 182.764 134.555 182.195 133.498C181.625 132.44 180.893 131.016 180.12 129.674C178.574 126.908 177.029 124.142 177.029 124.142C177.029 124.142 178.371 126.989 179.673 129.796C180.323 131.179 180.974 132.644 181.422 133.701C181.91 134.8 182.195 135.491 182.195 135.491C182.195 135.491 182.398 135.857 182.683 136.345C182.967 136.874 183.374 137.566 183.862 138.257C184.31 138.949 184.839 139.599 185.286 140.006C185.489 140.21 185.734 140.332 185.856 140.413C185.896 140.413 185.937 140.413 185.937 140.454C185.856 141.959 185.734 143.382 185.611 144.643C185.367 147.165 185.042 149.24 184.798 150.704C184.635 151.599 184.513 152.25 184.473 152.616C183.537 149.687 182.439 147.328 181.544 145.538C180.934 144.277 180.364 143.342 179.957 142.691C179.835 142.488 179.754 142.366 179.673 142.203C178.94 140.82 178.005 138.867 176.907 136.508C174.588 131.627 171.7 125.078 168.771 118.61C167.876 116.657 167.022 114.705 166.127 112.793C166.086 112.223 166.046 111.532 166.046 110.84C166.005 109.376 166.127 107.993 166.127 107.993C166.127 107.993 166.046 107.261 166.046 106.163C166.046 105.064 166.086 103.641 166.249 102.258C166.534 99.4508 167.429 96.9694 167.429 96.9694C167.429 96.9694 166.29 99.2881 165.72 101.973C165.435 103.315 165.232 104.739 165.151 105.837C165.069 106.935 165.069 107.668 165.069 107.668C165.069 107.668 165.232 109.213 165.557 110.759C165.639 111.207 165.761 111.613 165.842 111.979C163.971 107.952 162.181 104.088 160.595 101.037C158.236 96.2779 156.486 93.2271 156.486 93.2271C156.486 93.2271 156.283 92.861 155.836 92.1288C155.429 91.3966 154.819 90.339 154.005 89.0373C153.232 87.695 152.215 86.1085 151.036 84.3187C149.815 82.4882 148.392 80.5764 146.887 78.3798C145.381 76.2239 143.714 73.9053 141.965 71.4646C140.541 69.5121 139.036 67.3969 137.531 65.2817C137.043 64.4274 136.636 63.4512 136.514 62.4749C136.31 60.8885 136.514 59.2614 136.798 57.7156C137.124 56.1699 137.449 54.5835 137.612 53.0377C137.775 51.614 137.937 50.2717 138.141 49.1327C138.304 49.1327 138.466 49.1327 138.629 49.1327C139.565 49.092 140.5 48.9293 140.5 48.9293C140.5 48.9293 140.907 48.7666 141.476 48.4412C142.046 48.1158 142.778 47.6683 143.47 47.1395C144.853 46.0819 145.829 44.6988 145.829 44.6988C145.829 44.6988 144.609 45.8785 143.063 46.6514C142.331 47.0581 141.517 47.3429 140.907 47.5463C140.297 47.7497 139.849 47.831 139.849 47.831C139.849 47.831 139.117 48.2378 138.304 48.5632L138.141 48.6039C138.344 47.587 138.629 46.7734 138.832 46.2446C139.076 45.6344 139.28 45.3497 139.28 45.3497C139.28 45.3497 139.565 44.6582 140.134 43.6819C140.663 42.7057 141.436 41.3226 141.68 39.6548C141.924 37.9871 141.761 36.2379 141.476 34.9363C141.436 34.7735 141.395 34.6108 141.395 34.4481C141.558 34.3261 141.965 34.0007 142.412 33.6753C142.697 33.4719 142.981 33.3092 143.185 33.2278C143.429 33.1464 143.551 33.0651 143.551 33.0651C143.551 33.0651 143.673 32.7803 143.917 32.5363C144.12 32.2922 144.446 32.1702 144.446 32.1702C144.446 32.1702 144.039 32.0075 143.592 32.0075C143.144 32.0075 142.778 32.0888 142.778 32.0888C142.778 32.0888 142.656 32.2109 142.493 32.4549C142.331 32.6583 142.127 32.9837 141.965 33.2685C141.72 33.7566 141.476 34.2041 141.395 34.4074C141.314 34.0413 141.232 33.7159 141.192 33.4719L142.127 29.4448L141.802 27.0448L141.029 29.038L141.11 33.2685C141.029 32.9431 140.988 32.7803 140.988 32.7803C140.988 32.7803 141.029 33.0244 141.11 33.5125V33.7159V33.6346C141.192 34.0007 141.232 34.4481 141.314 34.9769C141.476 36.2786 141.517 37.9871 141.151 39.4921C140.785 40.9972 139.931 42.2175 139.321 43.1531L139.239 43.2751C139.158 42.5023 138.914 41.6887 138.914 41.6887C138.914 41.6887 138.71 41.2819 138.344 40.7531C137.978 40.2243 137.449 39.5328 136.921 38.882C136.392 38.2311 135.822 37.5803 135.415 37.1328C135.009 36.6447 134.765 36.3193 134.765 36.3193C134.765 36.3193 134.968 36.6854 135.293 37.2142C135.619 37.743 136.066 38.4345 136.514 39.126C136.961 39.8176 137.327 40.5497 137.571 41.0379C137.815 41.5667 137.937 41.8921 137.937 41.8921C137.937 41.8921 138.385 42.5429 138.71 43.2345C138.792 43.3972 138.832 43.5599 138.914 43.7226C138.548 44.3328 138.304 44.6988 138.304 44.6988C138.304 44.6988 138.141 45.0649 137.856 45.7158C137.612 46.3666 137.327 47.3429 137.165 48.5632C137.165 48.7259 137.124 48.8886 137.124 49.0107C137.002 49.0513 136.921 49.092 136.839 49.092L136.676 48.7259C136.27 47.7497 135.822 46.8141 135.822 46.8141C135.822 46.8141 134.602 45.065 133.26 43.3565C131.917 41.648 130.616 39.9803 130.616 39.9803C130.616 39.9803 131.714 41.7701 132.853 43.5599C133.951 45.3497 134.927 47.1802 134.927 47.1802C134.927 47.1802 135.537 48.0344 136.188 48.8886C136.473 49.2954 136.758 49.7429 137.002 50.0683C136.921 50.9225 136.839 51.8581 136.758 52.7937C136.676 54.3394 136.392 55.9258 136.148 57.5123C135.904 59.0987 135.741 60.8071 136.066 62.4749C136.148 63.0444 136.31 63.5732 136.554 64.102L136.392 63.8986C132.649 58.6106 128.704 52.9564 124.799 47.2209C123.09 44.6582 121.382 42.0955 119.673 39.5735C119.551 39.3294 119.47 39.0447 119.348 38.7599C119.47 38.5972 119.633 38.4345 119.795 38.2718C120.121 38.0277 120.528 37.8244 120.853 37.6616C121.138 37.4989 121.341 37.3769 121.341 37.3769C121.341 37.3769 122.643 36.0752 123.538 34.4074C124.473 32.7803 125.002 30.9092 125.002 30.9092C125.002 30.9092 124.229 32.6176 123.09 34.0007C121.951 35.3837 120.528 36.4413 120.528 36.4413C120.528 36.4413 120.365 36.604 120.161 36.8481C119.958 37.0922 119.592 37.4176 119.348 37.8244C119.267 37.9057 119.226 38.0277 119.144 38.1498C118.819 36.8074 118.819 35.6278 118.819 35.6278C118.819 35.6278 118.697 34.8956 118.575 33.7566C118.453 32.6176 118.331 31.0719 118.087 29.5261C117.639 26.4347 116.744 23.3432 116.744 23.3432C116.744 23.3432 117.355 26.4347 117.558 29.4448C117.68 30.9499 117.639 32.4142 117.639 33.5532C117.639 34.6922 117.721 35.4651 117.721 35.4651C117.721 35.4651 117.802 35.8718 117.965 36.482C118.046 36.8074 118.168 37.1735 118.331 37.621C115.199 32.8617 112.189 28.2651 109.463 23.9533C109.341 23.3432 109.016 22.0415 108.65 20.6991C108.162 18.8686 107.633 17.0788 107.633 17.0788C107.633 17.0788 107.267 16.1839 106.738 14.8416C106.209 13.4992 105.518 11.7501 104.826 9.96027C104.134 8.17046 103.524 6.38065 103.077 5.03829C102.873 4.38745 102.711 3.81797 102.589 3.41119C102.467 3.00442 102.426 2.80103 102.426 2.80103C102.426 2.80103 102.467 3.0451 102.548 3.41119C102.629 3.81797 102.751 4.38745 102.914 5.03829C103.24 6.38065 103.728 8.21114 104.297 10.0009C104.867 11.8314 105.436 13.6212 105.884 14.9636C106.331 16.306 106.616 17.2009 106.616 17.2009C106.616 17.2009 107.348 18.95 108.121 20.7398C108.568 21.9195 109.056 23.0991 109.301 23.7499C107.47 20.8212 105.68 18.0144 104.094 15.4924C101.409 11.1399 99.1718 7.47894 97.5854 4.87558C96.0397 2.3129 95.1447 0.848511 95.1447 0.848511C95.1447 0.848511 95.999 2.3129 97.5447 4.91626C99.0905 7.51962 101.328 11.1806 103.931 15.5738C108.04 22.2856 113.287 30.6651 118.941 39.3701C118.982 39.4921 119.022 39.6142 119.063 39.6955C118.25 38.7599 117.355 37.7837 116.419 36.8481C114.792 35.221 113.043 33.7159 111.741 32.6176C111.09 32.0888 110.521 31.6414 110.114 31.3566C109.707 31.0719 109.504 30.8685 109.504 30.8685C109.504 30.8685 109.016 30.5431 108.202 30.0143C107.389 29.4855 106.128 28.7533 104.663 28.0211C103.077 27.2482 101.165 26.394 99.1718 25.4991C99.0091 25.3364 98.8871 25.133 98.7244 24.9296C98.1142 24.116 97.4634 23.3025 97.4634 23.3025C97.4634 23.3025 95.999 21.9195 94.6159 20.4551C93.2329 18.9907 91.8905 17.4043 91.8905 17.4043C91.8905 17.4043 92.9888 19.1127 94.2092 20.7398C95.4295 22.3669 96.7718 23.9533 96.7718 23.9533C96.7718 23.9533 97.3413 24.4008 97.9922 24.9296C96.6498 24.3194 95.2668 23.6279 93.8837 22.9364C91.9719 21.9195 90.0601 20.8618 88.3516 19.6415C86.6431 18.4619 85.0974 17.1602 83.8364 16.0619C82.5754 14.9229 81.5178 13.9467 80.8263 13.2551C80.0941 12.5636 79.6873 12.1569 79.6873 12.1569C79.6873 12.1569 80.0941 12.5636 80.7856 13.2551C81.4771 13.9467 82.494 14.9636 83.755 16.1432C85.0161 17.3229 86.5211 18.6246 88.2296 19.8856C89.938 21.1466 91.8499 22.3262 93.8024 23.3838C96.7312 24.9703 99.7006 26.394 102.223 27.6143C101.043 27.2889 99.904 27.1262 99.904 27.1262C99.904 27.1262 99.3345 27.1262 98.4396 27.1669C97.5854 27.2482 96.4464 27.3702 95.3888 27.6143C94.3312 27.8584 93.3143 28.2245 92.5821 28.5499C92.216 28.7126 91.9312 28.8753 91.7685 28.9973C91.5651 29.1194 91.4838 29.2007 91.4838 29.2007C91.4838 29.2007 91.6058 29.16 91.8092 29.038C92.0126 28.9567 92.338 28.8346 92.7041 28.7126C93.477 28.4685 94.5346 28.2651 95.6329 28.1431C96.7312 28.0211 97.8701 28.0618 98.7244 28.1024C99.5786 28.1431 100.148 28.2245 100.148 28.2245C100.148 28.2245 101.246 28.1431 102.426 28.1838C102.833 28.1838 103.199 28.2245 103.565 28.2651C103.89 28.4279 104.256 28.6312 104.541 28.7533C106.006 29.5261 107.104 30.2583 107.917 30.7871C108.731 31.316 109.178 31.6414 109.178 31.6414C109.178 31.6414 109.423 31.8041 109.789 32.0482C110.195 32.3329 110.765 32.7397 111.416 33.1871C112.758 34.1634 114.548 35.5464 116.216 37.0515C117.843 38.5159 119.348 40.0616 120.446 41.3226L124.392 47.2615C128.216 52.9971 132.121 58.6919 135.822 64.0207C137.693 66.6647 139.524 69.2681 141.232 71.668C142.941 74.1087 144.568 76.4273 146.073 78.5832C147.578 80.7391 149.002 82.7323 150.141 84.4814C151.28 86.3119 152.297 87.8984 153.029 89.2C153.802 90.5017 154.412 91.5593 154.819 92.2915C155.225 93.0237 155.429 93.3898 155.429 93.3898C155.429 93.3898 157.219 96.3999 159.659 101.119C159.903 101.566 160.147 102.054 160.391 102.542C160.229 102.38 159.944 102.054 159.497 101.607C159.171 101.281 158.805 100.874 158.317 100.427C157.869 99.9796 157.341 99.4508 156.73 98.9626C154.941 97.3762 152.541 95.5864 150.019 93.8373C149.815 93.6339 149.612 93.4305 149.49 93.2678C149.286 93.0644 149.124 92.7796 149.002 92.6169C148.88 92.4542 148.798 92.3729 148.798 92.3729C148.798 92.3729 146.358 89.5661 144.405 86.5153C142.371 83.4645 140.907 80.2103 140.907 80.2103C140.907 80.2103 142.127 83.5052 143.958 86.7187C145.178 88.956 146.683 91.1119 147.497 92.2102C144.161 90.0543 140.826 87.9797 138.385 86.2713C137.165 85.417 136.148 84.6848 135.456 84.156C134.765 83.6272 134.399 83.3425 134.399 83.3425C134.399 83.3425 134.195 83.1798 133.829 82.895C133.463 82.6103 132.893 82.1221 132.243 81.634C130.9 80.495 129.07 78.7866 126.914 76.6307C124.758 74.4748 122.277 71.9121 119.389 69.3494C116.541 66.8274 113.368 64.2647 110.195 61.7834C108.568 60.5224 106.901 59.2207 105.314 58.0004L105.111 57.7563C104.46 56.9428 103.931 56.0885 103.931 56.0885C103.931 56.0885 103.565 55.7225 103.077 55.1123C102.589 54.5021 101.979 53.6886 101.45 52.7937C100.921 51.9394 100.433 51.0039 100.148 50.3123C100.026 49.9462 99.904 49.6615 99.8227 49.4581C99.7413 49.2547 99.7413 49.1327 99.7413 49.1327C99.7413 49.1327 99.7413 49.2547 99.782 49.4581C99.8227 49.6615 99.8633 49.9462 99.9854 50.3123C100.189 51.0445 100.514 51.9801 100.962 52.9564C101.409 53.892 101.938 54.8275 102.385 55.5191C102.467 55.6411 102.548 55.7631 102.629 55.8852C99.9447 53.7699 97.4634 51.6954 95.3075 49.7022C95.2261 49.5395 95.0634 49.2954 94.9007 49.0513C94.5753 48.4412 94.1685 47.6276 93.8431 46.7734C93.5176 45.9599 93.2736 45.1056 93.1515 44.4955C93.0295 43.8853 92.9888 43.4785 92.9888 43.4785C92.9888 43.4785 92.6634 42.665 92.46 41.8108C92.2566 40.9565 92.2566 40.143 92.2566 40.143C92.2566 40.143 91.9719 40.8345 91.8905 41.6887C91.8092 42.5023 91.8905 43.3972 91.8905 43.3972C91.8905 43.3972 92.0126 43.8446 92.2566 44.4955C92.5007 45.1463 92.8668 46.0412 93.3549 46.8548C93.8024 47.709 94.3312 48.4819 94.738 49.092C94.86 49.2141 94.9414 49.3768 95.0227 49.4581C94.3312 48.848 93.721 48.2378 93.1109 47.6276C92.0126 46.57 91.077 45.5531 90.2228 44.6582C89.4092 43.7226 88.7177 42.909 88.1075 42.2582C87.0092 40.8752 86.3584 40.0616 86.3584 40.0616C86.3584 40.0616 86.9686 40.8752 88.0669 42.2582C88.6363 42.9497 89.3279 43.7633 90.1414 44.6988C90.9143 45.5124 91.7685 46.4887 92.7448 47.4242C92.2973 47.0582 91.8499 46.7734 91.8499 46.7734C91.8499 46.7734 91.5245 46.6514 91.077 46.57C90.6295 46.4887 89.9787 46.4073 89.4092 46.448C88.8397 46.4887 88.3109 46.6107 87.9448 46.7734C87.7414 46.8548 87.6194 46.9361 87.5381 46.9768C87.4567 47.0175 87.3753 47.0581 87.3753 47.0581C87.3753 47.0581 88.3923 46.7734 89.5312 47.0175C90.1007 47.0988 90.6295 47.3022 91.0363 47.4649C91.4431 47.6276 91.6872 47.7903 91.6872 47.7903C91.6872 47.7903 92.216 47.8717 92.7854 48.0751C93.3549 48.2785 93.9244 48.6039 93.9244 48.6039C93.9244 48.6039 93.8837 48.5632 93.8024 48.4412C96.5685 51.2073 100.067 54.1767 103.85 57.2275C104.134 57.4716 104.46 57.7563 104.826 58.0411L105.314 58.4072L106.779 59.5868C106.494 59.3427 106.128 59.0987 105.721 58.8546C104.826 58.2445 103.85 57.7156 103.85 57.7156C103.85 57.7156 103.362 57.5529 102.629 57.3496C101.897 57.1462 100.921 56.9428 99.9447 56.7801C97.9922 56.4953 96.243 56.6987 96.243 56.6987C96.243 56.6987 98.1142 56.7801 99.9854 57.3496C100.921 57.5936 101.857 57.9597 102.548 58.2445C103.24 58.5699 103.687 58.7733 103.687 58.7733C103.687 58.7733 104.623 59.0173 105.558 59.3834C106.372 59.6682 107.185 60.0749 107.389 60.1563L109.911 62.1902C113.043 64.7122 116.175 67.2749 118.941 69.8375C120.528 71.2613 121.992 72.7256 123.334 74.1087C123.05 73.8646 122.846 73.7019 122.846 73.7019C122.846 73.7019 122.683 73.6205 122.317 73.3765C121.951 73.1731 121.422 72.929 120.812 72.7663C119.592 72.3595 118.087 72.1155 116.541 71.546C115.036 70.9765 113.531 70.2036 112.433 69.5121C111.334 68.8206 110.643 68.2511 110.643 68.2511C110.643 68.2511 111.294 68.8613 112.351 69.6342C113.409 70.407 114.914 71.3426 116.46 72.0748C118.006 72.807 119.633 73.2138 120.731 73.6612C121.3 73.9053 121.707 74.1087 121.992 74.3121C122.277 74.5155 122.439 74.6375 122.439 74.6375C122.439 74.6375 122.805 74.8409 123.334 75.1663C123.904 75.5324 124.595 75.9798 125.327 76.468C125.572 76.6307 125.816 76.7934 126.06 76.9561L126.263 77.2002C128.378 79.3968 130.249 81.1866 131.592 82.3662C132.283 82.9357 132.812 83.3831 133.178 83.7086C133.219 83.7492 133.26 83.7899 133.3 83.7899C133.015 83.7086 132.568 83.5865 132.039 83.4645C131.022 83.2204 129.639 82.9357 128.297 82.651C126.955 82.4069 125.612 82.0815 124.595 81.8374C124.107 81.7154 123.66 81.5933 123.375 81.4713C123.09 81.39 122.927 81.3086 122.927 81.3086C122.927 81.3086 123.09 81.3899 123.375 81.512C123.66 81.634 124.107 81.7967 124.595 82.0001C125.612 82.3662 126.955 82.8137 128.338 83.2204C129.68 83.6272 131.063 84.034 132.039 84.3594C133.056 84.7255 133.707 84.9696 133.707 84.9696C133.707 84.9696 134.765 85.2136 135.944 85.6611C136.514 86.0679 137.205 86.5153 137.978 87.0034C140.5 88.6712 143.958 90.6644 147.415 92.739L148.351 93.3085C148.473 93.4305 148.636 93.5932 148.88 93.8373C149.49 94.4067 150.263 94.8949 151.036 95.383C152.093 96.0745 153.192 96.644 153.802 96.8881C154.859 97.661 155.795 98.3932 156.649 99.0847C157.259 99.5728 157.788 100.061 158.276 100.508C158.764 100.915 159.171 101.322 159.497 101.647C159.944 102.095 160.269 102.42 160.432 102.542C162.751 107.017 165.517 112.793 168.242 118.569C171.252 125.037 174.303 131.505 176.703 136.386C177.923 138.827 178.9 140.86 179.673 142.243C180.405 143.667 180.812 144.481 180.812 144.481C180.812 144.481 180.405 143.667 179.713 142.203C179.673 142.162 179.673 142.121 179.632 142.04C179.713 142.162 179.795 142.284 179.876 142.447C180.242 143.098 180.812 144.033 181.422 145.294C182.357 147.125 183.456 149.606 184.35 152.616C184.35 152.698 184.35 152.738 184.35 152.738C184.35 152.738 184.35 152.698 184.391 152.616C184.717 153.674 185.042 154.813 185.367 155.992C186.547 160.508 187.401 165.714 188.215 171.369C189.069 176.982 190.005 183.084 191.835 189.023C191.835 189.063 191.835 189.063 191.876 189.104C191.876 189.673 191.916 190.243 191.916 190.731C191.835 190.609 191.469 189.958 190.9 189.104C190.208 188.128 189.232 186.867 188.256 185.728C187.239 184.548 186.222 183.49 185.367 182.758C184.92 182.392 184.595 182.107 184.31 181.945C184.066 181.741 183.903 181.66 183.903 181.66C183.903 181.66 184.025 181.782 184.269 181.985C184.513 182.189 184.879 182.514 185.245 182.88C186.059 183.653 186.995 184.833 187.889 186.094C188.784 187.314 189.639 188.657 190.249 189.633C190.818 190.65 191.144 191.341 191.144 191.341C191.144 191.341 191.51 191.87 191.957 192.602C191.998 193.253 191.998 193.619 191.998 193.619C191.998 193.619 191.998 193.253 191.998 192.643C192.242 193.05 192.527 193.538 192.771 193.985C193.055 194.514 193.34 195.043 193.584 195.49C193.788 196.263 193.991 197.077 194.113 197.85C194.642 200.819 195.049 203.667 194.967 206.473C194.886 209.28 194.845 211.883 194.561 214.446C194.316 216.968 194.194 219.368 194.072 221.565C193.706 225.998 193.544 229.619 193.178 232.181C192.933 234.703 192.771 236.168 192.771 236.168C192.771 236.168 192.608 237.388 192.364 239.219C192.079 241.049 191.876 243.449 191.347 245.849C190.859 248.249 190.493 250.608 190.045 252.398C189.598 254.147 189.313 255.327 189.313 255.327V255.286C189.272 255.042 189.232 254.635 189.191 254.107C189.028 253.09 188.906 251.707 188.418 250.039C187.971 248.371 187.361 246.541 186.71 244.547C186.018 242.595 185.205 240.52 184.554 238.405C184.269 237.51 183.984 236.575 183.659 235.72C183.659 235.639 183.659 235.598 183.659 235.517C183.618 234.948 183.496 234.175 183.334 233.442C183.171 232.71 183.008 231.978 182.967 231.449C182.886 230.92 182.927 230.595 182.927 230.595C182.805 230.798 183.171 227.829 183.781 224.982C184.473 222.093 185.286 219.368 185.286 219.368C185.286 219.368 185.001 220.06 184.635 221.036C184.31 222.053 183.74 223.395 183.334 224.819C182.601 227.178 182.113 229.537 181.991 230.351C181.584 229.09 181.218 227.91 180.893 226.893C180.405 225.348 180.039 224.005 179.795 223.11C179.51 222.215 179.347 221.687 179.347 221.687C179.347 221.687 178.981 220.67 178.452 218.839C178.412 218.677 178.33 218.473 178.29 218.31V218.188C178.29 217.497 178.371 216.805 178.452 216.317C178.534 215.829 178.615 215.504 178.615 215.504C178.615 215.504 178.656 214.812 178.778 213.795C178.94 212.778 179.266 211.436 179.591 210.053C179.957 208.67 180.12 207.287 180.201 206.189C180.283 205.09 180.201 204.358 180.201 204.358C180.201 204.358 180.201 205.09 180.039 206.148C179.876 207.205 179.632 208.507 179.144 209.85C178.696 211.151 178.249 212.494 178.005 213.51C177.761 214.527 177.679 215.26 177.679 215.26C177.679 215.26 177.679 215.626 177.679 216.195C177.191 214.812 176.662 213.185 176.093 211.355C174.1 205.172 171.496 197.117 168.242 188.982L166.9 185.687C167.063 184.996 167.429 183.368 167.632 181.741C167.957 179.545 168.12 177.267 168.12 177.267C168.12 177.267 168.039 176.087 167.876 174.908C167.713 173.728 167.51 172.548 167.51 172.548C167.51 172.548 167.429 173.687 167.388 174.826C167.307 175.924 167.144 177.063 167.144 177.063C167.144 177.063 167.225 179.382 167.144 181.619C167.103 183.246 166.941 184.833 166.859 185.606C164.174 179.26 161.286 173.077 158.52 168.196C158.52 168.155 158.52 168.074 158.52 167.992C158.561 167.789 158.561 167.464 158.561 167.097C158.561 166.325 158.52 165.308 158.358 164.291C158.195 163.233 157.991 162.216 157.869 161.443C157.707 160.67 157.625 160.142 157.625 160.142C157.625 160.142 157.259 159.125 156.893 158.108C156.568 157.131 156.202 156.074 156.202 156.074C156.202 156.074 156.283 157.091 156.405 158.148C156.527 159.206 156.649 160.223 156.649 160.223C156.649 160.223 156.812 160.752 157.056 161.484C157.259 162.257 157.585 163.233 157.869 164.25C158.154 165.267 158.317 166.284 158.439 167.057C158.52 167.545 158.52 167.911 158.52 168.114C158.276 167.667 158.032 167.219 157.829 166.813C156.161 163.843 154.615 161.403 153.598 159.694C152.5 158.026 151.849 157.05 151.849 157.05C151.849 157.05 152.459 158.026 153.558 159.735C154.575 161.484 156.08 163.925 157.707 166.894C161.042 172.833 164.744 181.009 167.835 189.145C168.568 190.894 169.096 192.684 169.788 194.433C169.625 194.148 169.422 193.823 169.259 193.497C168.527 192.277 167.754 191.097 167.754 191.097C167.754 191.097 165.842 188.982 163.768 187.233C162.751 186.338 161.652 185.524 160.758 184.996C160.31 184.711 159.985 184.507 159.7 184.385C159.456 184.263 159.293 184.182 159.293 184.182C159.293 184.182 159.415 184.263 159.659 184.426C159.903 184.589 160.229 184.833 160.636 185.158C161.449 185.768 162.507 186.663 163.402 187.64C164.337 188.616 165.273 189.633 165.924 190.446C166.615 191.219 166.981 191.789 166.981 191.789C166.981 191.789 167.917 192.765 168.812 193.823C169.259 194.351 169.707 194.921 170.032 195.328C171.13 198.338 171.985 201.267 172.961 203.992C173.734 206.799 174.71 209.321 175.32 211.68C176.256 214.771 177.069 217.375 177.557 219.205C178.086 221.036 178.452 222.053 178.452 222.053C178.452 222.053 179.103 224.087 180.12 227.259C180.649 228.805 181.3 230.636 181.91 232.588C182.561 234.541 183.415 236.615 184.066 238.69C184.595 240.195 185.164 241.7 185.774 243.124C185.693 243.042 185.611 242.961 185.489 242.839C185.164 242.514 184.757 242.025 184.391 241.537C183.618 240.561 182.927 239.503 182.927 239.503C182.927 239.503 182.479 239.056 181.828 238.446C181.503 238.12 181.096 237.754 180.649 237.429C180.201 237.063 179.673 236.737 179.144 236.534C178.127 236.046 177.11 235.436 176.5 234.785C176.174 234.459 175.971 234.175 175.808 233.931C175.686 233.687 175.605 233.564 175.605 233.564C175.605 233.564 175.646 233.687 175.768 233.971C175.89 234.215 176.093 234.541 176.378 234.907C176.947 235.639 177.923 236.371 178.94 237.022C179.429 237.347 179.876 237.673 180.242 238.039C180.649 238.405 180.974 238.812 181.259 239.137C181.828 239.829 182.235 240.317 182.235 240.317C182.235 240.317 183.13 241.13 184.066 241.944C184.513 242.351 185.001 242.717 185.408 242.961C185.571 243.042 185.693 243.164 185.815 243.205C186.75 245.686 187.605 248.046 188.215 250.08C188.744 251.707 188.906 253.09 189.069 254.107C189.15 254.595 189.191 255.002 189.232 255.246C189.232 255.286 189.232 255.286 189.232 255.327C189.232 255.327 188.866 256.832 188.296 259.11C187.605 261.347 186.832 264.357 185.774 267.286C184.717 270.215 183.74 273.103 182.805 275.218C181.91 277.333 181.34 278.757 181.34 278.757C181.015 279.408 180.486 280.222 179.957 281.279C179.266 282.54 178.493 284.045 177.639 285.835C176.703 287.584 175.686 289.537 174.629 291.693C174.14 292.75 173.49 293.808 172.92 294.906L173.042 294.662C173.408 293.849 173.815 292.954 174.222 292.018C174.588 291.042 174.954 290.025 175.32 288.967C175.686 287.91 176.052 286.811 176.378 285.672C176.662 284.533 176.907 283.354 177.151 282.174C177.354 280.994 177.517 279.815 177.639 278.635C177.72 277.456 177.72 276.317 177.72 275.218C177.72 273.022 177.598 270.988 177.354 269.239C177.151 267.53 176.988 266.106 176.866 265.09C176.744 264.113 176.622 263.544 176.622 263.544C176.622 263.544 176.378 262.405 176.012 260.452C175.808 259.476 175.564 258.296 175.239 256.995C174.873 255.652 174.425 254.188 173.937 252.602C173.49 251.015 172.839 249.347 172.025 247.598C171.252 245.89 170.479 244.1 169.381 242.392C169.056 241.863 168.73 241.334 168.364 240.764C168.283 240.236 168.161 239.544 168.079 238.853C167.917 237.51 167.632 236.168 167.632 236.168C167.632 236.168 166.778 233.605 166.168 231.002C165.802 229.7 165.517 228.398 165.354 227.422C165.273 226.934 165.232 226.527 165.191 226.202C165.151 225.917 165.151 225.754 165.151 225.754C165.151 225.754 165.151 225.917 165.151 226.202C165.151 226.487 165.151 226.934 165.191 227.422C165.273 228.439 165.435 229.781 165.68 231.083C166.046 233.768 166.696 236.412 166.696 236.412C166.696 236.412 167.185 237.673 167.591 238.975C167.754 239.422 167.917 239.869 168.039 240.276C166.371 237.551 164.215 234.948 162.1 232.507C160.269 230.473 158.276 228.561 156.486 226.771C156.649 226.893 156.771 226.975 156.771 226.975C156.771 226.975 156.608 226.812 156.446 226.527C156.283 226.243 156.039 225.876 155.876 225.47C155.714 225.063 155.632 224.656 155.551 224.331C155.469 224.005 155.429 223.802 155.429 223.802C155.429 223.802 154.697 222.175 154.005 220.548C153.192 218.961 152.419 217.416 152.419 217.416C152.419 217.416 152.988 219.083 153.558 220.71C154.046 222.419 154.534 224.087 154.534 224.087C154.534 224.087 154.656 224.29 154.819 224.575C154.981 224.859 155.225 225.266 155.469 225.673C155.592 225.876 155.754 226.039 155.876 226.202C154.127 224.656 152.459 223.192 150.914 221.89C149.286 220.588 147.741 219.449 146.358 218.432C146.398 218.432 146.398 218.432 146.398 218.432H146.358C144.039 216.683 141.843 215.463 140.5 214.568C139.117 213.673 138.263 213.266 138.263 213.266C138.263 213.266 139.076 213.673 140.378 214.568C141.68 215.422 143.714 216.643 145.91 218.31C145.626 218.229 145.259 218.107 144.893 217.985C144.12 217.741 143.348 217.497 143.348 217.497C143.348 217.497 141.68 217.334 140.012 217.334C138.344 217.293 136.676 217.456 136.676 217.456C136.676 217.456 138.344 217.497 139.931 217.741C141.558 217.944 143.144 218.31 143.144 218.31C143.144 218.31 143.958 218.351 144.812 218.392C145.341 218.432 145.87 218.432 146.154 218.473C149.449 220.914 153.476 224.249 157.463 228.276L157.3 228.195C156.69 227.91 156.08 227.666 156.08 227.666C156.08 227.666 154.737 227.504 153.395 227.585C152.053 227.626 150.751 227.87 150.751 227.87C150.751 227.87 152.053 227.87 153.354 228.032C154.656 228.195 155.876 228.561 155.876 228.561C155.876 228.561 156.527 228.561 157.178 228.642C157.422 228.683 157.707 228.683 157.91 228.724C159.171 230.066 160.595 231.449 161.815 232.873C163.117 234.419 164.419 236.005 165.639 237.673C166.778 239.341 167.876 241.049 168.893 242.758C169.869 244.344 170.52 245.971 171.252 247.598C170.927 247.191 170.479 246.785 169.991 246.419C169.381 245.971 168.73 245.646 168.242 245.361C167.754 245.117 167.469 244.954 167.469 244.954C167.469 244.954 167.307 244.873 167.022 244.791C166.737 244.669 166.371 244.507 165.883 244.263C164.947 243.734 163.686 243.042 162.425 242.351C159.903 240.927 157.381 239.666 157.381 239.666C157.381 239.666 159.781 241.13 162.181 242.758C163.361 243.571 164.541 244.385 165.476 244.995C165.924 245.28 166.33 245.524 166.615 245.686C166.9 245.849 167.063 245.93 167.063 245.93C167.063 245.93 167.388 246.052 167.917 246.215C168.405 246.378 169.096 246.622 169.747 246.907C170.398 247.191 170.968 247.639 171.334 248.046C171.374 248.086 171.415 248.168 171.456 248.208C172.188 249.835 172.717 251.463 173.164 252.968C173.652 254.554 174.059 256.018 174.425 257.361C174.71 258.703 174.954 259.842 175.117 260.818C175.483 262.771 175.686 263.869 175.686 263.869C175.686 263.869 175.808 264.439 175.93 265.415C176.093 266.391 176.296 267.815 176.54 269.523C176.825 271.232 176.947 273.225 177.029 275.381C177.069 276.479 177.069 277.618 177.029 278.757C176.947 279.896 176.825 281.076 176.622 282.215C176.418 283.394 176.215 284.533 175.971 285.672C175.646 286.811 175.32 287.91 174.995 288.967C174.344 291.123 173.612 293.076 172.879 294.662C172.513 295.476 172.188 296.208 171.903 296.899C171.171 298.404 170.317 299.869 169.422 301.415C168.527 302.92 167.713 304.547 166.696 306.092C163.646 311.177 159.903 316.384 155.673 320.98C154.778 322.038 153.72 322.974 152.744 323.909C153.11 323.218 153.639 322.201 154.208 321.143C155.063 319.313 155.795 317.482 155.795 317.482C155.795 317.482 156.08 316.547 156.486 315.123C156.893 313.74 157.178 311.787 157.463 309.875C157.585 308.94 157.707 308.004 157.747 307.109C157.747 306.214 157.747 305.401 157.707 304.709C157.666 304.018 157.585 303.448 157.544 303.042C157.463 302.635 157.463 302.431 157.463 302.431C157.463 302.431 157.463 302.676 157.503 303.042C157.544 303.448 157.544 304.018 157.585 304.709C157.625 306.133 157.422 307.964 157.015 309.835C156.364 313.618 154.9 317.238 154.9 317.238C154.9 317.238 154.412 319.109 153.802 320.98C153.314 322.201 152.866 323.38 152.622 324.072C151.768 324.885 150.914 325.699 150.019 326.472C149.124 327.204 148.188 327.936 147.293 328.668C145.544 330.174 143.714 331.557 141.965 332.94C139.768 334.851 137.571 336.601 135.578 338.268C133.585 339.977 131.47 341.36 129.68 342.743C127.89 344.004 126.141 345.061 124.636 346.038C124.717 345.956 124.839 345.916 124.921 345.834C125.612 345.346 126.548 344.573 127.646 343.638C128.785 342.743 129.924 341.482 131.144 340.14C132.365 338.838 133.626 337.333 134.643 335.706C136.839 332.614 138.67 329.279 140.093 326.879C141.354 324.397 142.168 322.689 142.168 322.689C142.168 322.689 142.534 321.835 143.185 320.37C143.754 318.865 144.568 316.75 145.585 314.187C146.968 309.957 148.676 304.628 149.775 299.096C150.1 298.771 150.588 298.282 151.076 297.835C151.931 297.021 152.703 296.086 152.703 296.086C152.703 296.086 153.924 294.052 155.063 291.896C156.08 289.699 156.893 287.462 156.893 287.462C156.893 287.462 155.836 289.618 154.656 291.652C153.354 293.645 151.931 295.516 151.931 295.516C151.931 295.516 151.402 296.574 150.71 297.55C150.385 297.998 150.1 298.486 149.856 298.811C150.059 297.672 150.385 296.615 150.548 295.476C151.849 288.764 152.5 281.971 153.069 277.008C153.273 274.486 153.598 272.452 153.68 270.988C153.802 269.523 153.842 268.71 153.842 268.71C153.842 268.71 153.761 269.523 153.639 270.988C153.558 272.452 153.192 274.486 152.947 277.008C152.297 281.971 151.483 288.723 150.1 295.394C149.734 297.184 149.286 298.933 148.88 300.723V300.642C148.798 300.113 148.636 299.584 148.514 299.218C148.392 298.852 148.31 298.608 148.31 298.608C148.31 298.608 147.293 296.859 146.236 295.11C145.219 293.401 144.039 291.693 144.039 291.693C144.039 291.693 145.015 293.482 145.788 295.313C146.602 297.184 147.415 299.015 147.415 299.015C147.415 299.015 147.985 299.869 148.392 300.804C148.514 301.089 148.595 301.374 148.676 301.618C148.025 303.896 147.415 306.133 146.846 308.208C146.154 310.282 145.463 312.235 144.893 314.025C143.876 316.547 143.022 318.662 142.412 320.126C141.72 321.55 141.354 322.404 141.354 322.404C141.354 322.404 140.866 323.462 140.134 325.13C140.215 324.682 140.256 324.113 140.297 323.584C140.378 322.404 140.5 321.184 140.5 321.184C140.5 321.184 140.459 320.614 140.378 319.719C140.337 318.865 140.175 317.686 140.012 316.547C139.687 314.269 139.321 311.991 139.321 311.991C139.321 311.991 139.443 314.309 139.524 316.587C139.605 317.767 139.565 318.906 139.524 319.801C139.524 320.696 139.483 321.265 139.483 321.265C139.483 321.265 139.646 322.445 139.768 323.624C139.849 324.235 139.931 324.804 139.931 325.252C139.931 325.374 139.931 325.455 139.931 325.536C138.629 328.058 136.717 331.923 134.277 335.543C133.3 337.17 132.121 338.675 130.941 340.017C129.761 341.36 128.663 342.662 127.565 343.597C126.507 344.573 125.572 345.346 124.88 345.834C124.677 345.997 124.473 346.16 124.351 346.241C122.846 347.258 121.422 347.909 120.324 348.6C119.185 349.251 118.25 349.739 117.639 350.105C116.989 350.431 116.663 350.594 116.663 350.594C116.663 350.594 115.972 350.919 114.792 351.529C113.612 352.099 111.985 353.034 109.911 353.889C107.836 354.783 105.518 355.882 102.873 356.817C101.572 357.305 100.27 357.875 98.8871 358.322C97.504 358.77 96.121 359.217 94.738 359.665C91.9719 360.56 89.1245 361.21 86.5211 361.902C83.8364 362.431 81.5178 363.041 79.2398 363.366C74.8467 364.139 71.5925 364.546 71.5925 364.546C71.5925 364.546 73.9111 364.261 77.4094 363.773C80.7449 363.285 84.894 362.594 89.1245 361.617C93.3549 360.682 97.504 359.38 100.677 358.363C103.809 357.224 105.884 356.492 105.884 356.492C106.86 356.573 109.26 356.695 112.677 356.858C117.07 356.98 123.05 356.858 129.232 356.166C132.324 355.841 135.334 355.231 138.344 354.702C141.232 354.051 143.958 353.319 146.358 352.628C150.995 351.122 154.168 349.821 154.168 349.821C154.168 349.821 154.859 349.536 155.958 348.967C156.161 349.048 156.446 349.048 156.812 349.007C157.707 348.926 158.886 348.519 160.025 348.194C160.31 348.112 160.554 348.072 160.839 348.072C161.124 348.072 161.408 348.072 161.652 348.031C162.181 348.031 162.71 347.99 163.117 347.99C163.971 347.95 164.581 347.909 164.581 347.909L169.3 346.689L164.785 346.77C164.785 346.77 164.215 346.892 163.32 347.055C162.873 347.136 162.344 347.217 161.815 347.299C161.53 347.339 161.246 347.38 160.961 347.421C160.636 347.461 160.31 347.543 160.025 347.665C158.805 348.112 157.707 348.641 156.812 348.844C156.527 348.926 156.242 348.926 156.039 348.926C156.568 348.641 157.219 348.316 157.951 347.99C159.09 347.421 160.432 346.729 161.856 345.997C163.239 345.224 164.744 344.411 166.29 343.597C169.381 342.011 172.351 340.384 174.669 339.367C175.808 338.838 176.825 338.472 177.476 338.228C178.168 337.984 178.574 337.821 178.574 337.821C178.574 337.821 178.168 337.943 177.476 338.187C176.784 338.431 175.808 338.757 174.629 339.204C172.595 339.936 170.195 341.197 167.551 342.417C167.795 342.214 168.079 341.97 168.364 341.767C169.259 341.034 169.991 340.14 169.991 340.14C169.991 340.14 171.293 338.228 172.269 336.194C172.757 335.177 173.205 334.201 173.449 333.387C173.571 332.98 173.652 332.655 173.693 332.451C173.734 332.207 173.774 332.085 173.774 332.085C173.774 332.085 173.734 332.207 173.652 332.451C173.571 332.696 173.449 332.98 173.286 333.387C173.001 334.16 172.432 335.095 171.822 336.031C170.642 337.902 169.218 339.611 169.218 339.611C169.218 339.611 168.69 340.587 167.998 341.441C167.632 341.929 167.266 342.377 166.981 342.702L166.127 343.109C164.581 343.882 163.076 344.655 161.652 345.346C160.188 346.038 158.846 346.648 157.707 347.177C155.429 348.234 153.924 348.885 153.924 348.885C153.924 348.885 150.792 350.228 146.236 351.814C145.341 352.058 144.365 352.343 143.388 352.668L143.958 352.302C144.975 351.57 145.992 350.797 145.992 350.797C145.992 350.797 147.7 348.926 149.327 347.014C150.141 346.078 150.914 345.102 151.483 344.329C152.012 343.556 152.378 343.068 152.378 343.068C152.378 343.068 151.971 343.556 151.361 344.248C150.751 344.98 149.897 345.875 148.961 346.729C147.171 348.478 145.3 350.146 145.3 350.146C145.3 350.146 144.487 351.082 143.592 351.977C143.266 352.302 142.941 352.628 142.697 352.912C138.67 354.133 133.87 355.068 129.232 355.76C126.548 356.085 123.944 356.37 121.463 356.573C121.911 356.492 122.48 356.248 123.05 356.004C124.148 355.556 125.205 355.027 125.205 355.027C125.205 355.027 125.694 354.702 126.426 354.173C127.158 353.644 128.094 352.912 128.907 352.099C129.761 351.285 130.575 350.431 131.144 349.739C131.714 349.089 132.039 348.6 132.039 348.6C132.039 348.6 131.632 349.048 131.022 349.617C130.412 350.228 129.517 351 128.622 351.692C127.727 352.424 126.751 353.034 125.978 353.482C125.246 353.889 124.717 354.173 124.717 354.173C124.717 354.173 123.822 354.865 122.846 355.516C122.195 355.963 121.504 356.329 121.138 356.533C117.965 356.655 115.117 356.817 112.677 356.777C109.382 356.655 106.901 356.573 105.884 356.573C105.884 356.573 108.731 355.394 111.538 354.214C114.345 352.872 117.111 351.57 117.111 351.57C117.111 351.57 117.436 351.407 118.087 351.082C118.697 350.716 119.592 350.228 120.772 349.536C123.131 348.275 126.344 346.241 130.127 343.597C131.958 342.173 134.032 340.79 136.026 339.041C138.019 337.333 140.215 335.543 142.371 333.631C146.846 329.97 151.768 326.187 156.08 321.469C157.544 319.76 159.049 318.011 160.432 316.221C160.839 316.14 161.652 315.936 162.873 315.692C164.581 315.286 167.144 314.635 170.154 313.536C172.229 312.764 174.629 311.706 177.151 310.445C179.673 309.184 182.195 307.598 184.92 305.808C185.734 305.848 186.669 305.848 187.605 305.97C188.744 306.092 189.801 306.337 190.533 306.662C191.266 306.987 191.794 307.191 191.794 307.191C191.794 307.191 192.079 307.231 192.527 307.313C192.974 307.353 193.584 307.353 194.235 307.15C194.886 306.947 195.496 306.54 195.862 306.092C196.269 305.645 196.432 305.279 196.432 305.279C196.432 305.279 196.228 305.604 195.822 305.93C195.415 306.255 194.845 306.499 194.316 306.499C193.788 306.54 193.259 306.377 192.893 306.214C192.527 306.052 192.283 305.93 192.283 305.93C192.283 305.93 191.754 305.808 190.9 305.604C190.045 305.401 188.906 305.32 187.727 305.36C186.913 305.401 186.1 305.442 185.327 305.523C187.32 304.14 189.232 302.594 191.225 300.967C198.425 294.865 204.933 286.974 209.001 280.344C211.157 277.049 212.581 274.12 213.72 272.045C214.859 270.012 215.387 268.791 215.387 268.791C215.387 268.791 215.672 268.181 216.16 267.123C216.242 266.961 216.323 266.757 216.445 266.554C217.259 265.822 218.316 264.967 219.415 264.235C220.594 263.422 221.814 262.73 222.709 262.283C223.604 261.835 224.214 261.591 224.214 261.591C224.214 261.591 225.353 260.818 226.574 260.208C227.794 259.598 229.014 259.151 229.014 259.151C229.014 259.151 227.753 259.232 226.492 259.517C225.231 259.761 223.97 260.249 223.97 260.249C223.97 260.249 223.36 260.574 222.465 261.184C221.57 261.795 220.391 262.649 219.211 263.625C218.276 264.398 217.421 265.252 216.689 265.984C217.137 265.09 217.665 264.032 218.316 262.852C219.252 261.144 220.269 259.151 221.611 257.239C222.913 255.286 224.459 253.334 225.842 251.341C226.858 249.876 227.916 248.371 228.852 246.825C229.136 246.5 229.462 246.215 229.747 245.93C229.747 245.93 231.089 244.344 232.472 243.164C233.896 241.944 235.441 241.171 235.441 241.171C235.441 241.171 234.058 241.578 232.472 242.514ZM136.961 48.9293C137.043 48.9293 137.124 48.9293 137.205 48.9293L137.165 49.4174C137.124 49.2954 137.043 49.092 136.961 48.9293ZM119.389 39.5735C119.348 39.5328 119.348 39.4515 119.307 39.3701L119.633 39.8989L119.389 39.5735ZM203.835 174.094C203.754 176.169 203.632 177.389 203.632 177.389C203.632 177.389 203.388 175.884 203.062 174.419C202.737 172.955 202.411 171.45 202.411 171.45C202.411 171.45 202.086 170.474 201.638 168.969C201.476 168.399 201.232 167.708 200.988 167.057C202.127 165.47 203.062 163.64 203.794 161.728C203.916 161.443 203.998 161.159 204.12 160.833C204.16 162.379 204.16 163.925 204.16 165.308C204.079 168.928 203.916 171.979 203.835 174.094ZM204.323 160.182C204.282 160.304 204.201 160.426 204.16 160.589C204.242 160.426 204.282 160.264 204.364 160.101C204.364 160.101 204.364 160.142 204.323 160.182ZM192.689 166.731C192.73 166.243 192.771 165.755 192.811 165.267C193.381 158.189 194.316 151.111 195.415 145.945C195.984 143.342 196.472 141.186 196.838 139.681C197.205 138.176 197.408 137.322 197.408 137.322C197.408 137.322 197.815 135.572 198.384 133.01C198.669 131.708 198.994 130.203 199.32 128.535C199.36 128.372 199.36 128.169 199.401 127.966C200.133 131.22 200.947 134.596 201.638 137.932C202.615 142.732 203.225 147.491 203.591 151.925C203.428 152.087 203.266 152.25 203.103 152.413C203.103 152.413 202.696 152.82 202.045 153.43C201.72 153.715 201.354 154.081 200.906 154.447C200.54 154.731 200.174 155.057 199.767 155.382C199.361 155.708 198.954 155.992 198.547 156.318C197.937 156.765 197.286 157.294 196.676 157.904C196.025 156.887 195.577 156.237 195.577 156.237C195.577 156.237 196.025 156.928 196.594 157.986C196.35 158.23 196.106 158.433 195.862 158.677C195.049 159.613 194.398 160.792 193.991 161.972C193.706 162.745 193.544 163.477 193.381 164.169C193.3 164.535 193.218 164.901 193.178 165.226C193.015 166.203 192.893 167.016 192.811 167.586C192.771 167.789 192.771 167.952 192.771 168.074C192.689 168.114 192.649 168.155 192.608 168.196C192.608 167.708 192.649 167.219 192.689 166.731ZM192.079 190.894C192.079 190.446 192.079 189.999 192.079 189.47C192.405 190.731 192.73 191.992 193.096 193.253C192.567 192.033 192.12 191.016 192.079 190.894ZM194.764 197.931C194.154 194.962 193.178 191.992 192.405 189.023C192.283 188.575 192.161 188.168 192.039 187.721C192.039 186.826 192.039 185.89 192.039 184.833C192.039 180.318 192.161 174.541 192.567 168.603C192.567 168.48 192.567 168.358 192.608 168.236C192.649 168.236 192.689 168.196 192.73 168.155C192.689 168.399 192.689 168.521 192.689 168.521C192.689 168.521 192.73 168.358 192.771 168.114C192.974 167.992 193.3 167.789 193.747 167.545C194.479 167.138 195.415 166.528 196.35 165.877C196.879 165.511 197.408 165.104 197.855 164.697L199.116 165.104L200.011 164.575L199.157 164.047L198.466 164.25V164.209C198.588 164.087 198.75 164.006 198.832 163.884C199.483 163.274 199.849 162.826 199.849 162.826C199.849 162.826 200.54 161.809 201.028 160.63C201.272 160.06 201.476 159.45 201.598 159.003C201.72 158.555 201.801 158.23 201.801 158.23C201.801 158.23 201.679 158.514 201.476 158.921C201.272 159.328 200.988 159.857 200.662 160.345C200.011 161.321 199.198 162.094 199.198 162.094C199.198 162.094 199.116 162.216 198.954 162.42C198.994 162.379 198.994 162.338 198.994 162.338C198.994 162.338 198.954 162.013 198.913 161.647C198.872 161.321 198.872 160.955 198.872 160.955C198.872 160.955 198.669 161.199 198.466 161.484C198.262 161.769 198.099 162.094 198.099 162.094C198.099 162.094 198.059 162.745 198.14 163.436C197.611 164.047 196.879 164.779 196.106 165.47C195.252 166.203 194.357 166.894 193.706 167.423C193.3 167.708 193.015 167.952 192.811 168.074C192.852 167.952 192.852 167.789 192.893 167.626C192.974 167.057 193.137 166.243 193.34 165.308C193.544 164.413 193.828 163.314 194.276 162.257C194.723 161.118 195.333 159.979 196.228 159.125C196.35 159.003 196.472 158.921 196.635 158.799C197.367 158.108 198.181 157.538 198.954 157.009C199.889 156.399 200.744 155.789 201.476 155.22C202.94 154.121 203.835 153.308 203.835 153.308C205.137 152.047 206.398 150.623 207.577 149.199C207.618 149.159 207.659 149.077 207.699 149.037C207.699 149.077 207.659 149.118 207.659 149.118C206.032 153.186 205.055 157.538 203.55 161.565C202.655 164.006 201.476 166.325 199.889 168.277C199.849 168.358 199.808 168.399 199.727 168.48C198.913 169.457 197.937 170.311 196.798 170.596C195.822 170.84 194.723 170.474 194.072 169.538C193.991 169.416 193.869 169.294 193.788 169.131C193.828 169.294 193.95 169.375 194.032 169.538C194.642 170.514 195.781 170.921 196.798 170.718C197.977 170.474 198.994 169.579 199.849 168.643C200.093 168.358 200.296 168.074 200.54 167.748C200.662 168.236 200.825 168.684 200.906 169.131C201.272 170.636 201.516 171.613 201.516 171.613C201.516 171.613 202.086 173.24 202.615 174.867C203.184 176.494 203.632 178.162 203.632 178.162C203.55 179.097 203.428 181.009 203.225 183.49C203.103 185.24 202.818 187.396 202.533 189.592C202.208 191.789 201.923 194.067 201.354 196.345C200.825 198.582 200.174 200.738 199.483 202.65C198.832 204.561 197.937 206.27 197.286 207.734C196.554 209.321 195.984 210.622 195.659 211.517C195.7 210.012 195.781 208.466 195.781 206.88C195.822 203.911 195.333 200.941 194.764 197.931Z" fill="#4F4F4F"/>
<path d="M188.988 122.8C188.988 122.8 189.11 121.945 189.272 121.091C189.394 120.237 189.516 119.383 189.516 119.383C189.516 119.383 189.15 120.034 188.744 120.725C188.337 121.376 187.93 122.027 187.93 122.027C187.93 122.027 187.523 123.613 187.035 125.118C186.547 126.664 185.977 128.128 185.977 128.128C185.977 128.128 186.791 126.867 187.564 125.525C188.296 124.183 188.988 122.8 188.988 122.8Z" fill="#4F4F4F"/>
<path d="M182.642 159.125C183.212 160.101 183.7 161.159 184.066 161.931C184.432 162.704 184.676 163.233 184.676 163.233C184.676 163.233 185.327 164.209 186.018 165.186C186.751 166.121 187.483 166.975 187.483 166.975C187.483 166.975 186.913 165.959 186.425 164.901C185.937 163.843 185.53 162.786 185.53 162.786C185.53 162.786 185.245 162.298 184.798 161.525C184.351 160.752 183.74 159.735 183.049 158.799C182.317 157.864 181.503 157.009 180.852 156.521C180.527 156.277 180.242 156.074 180.039 155.993C179.835 155.871 179.713 155.83 179.713 155.83C179.713 155.83 179.835 155.911 179.998 156.033C180.201 156.155 180.446 156.399 180.771 156.684C181.34 157.254 182.073 158.148 182.642 159.125Z" fill="#4F4F4F"/>
<path d="M155.51 166.569C155.51 166.569 156.364 167.26 157.219 167.952C158.073 168.643 158.886 169.375 158.886 169.375C158.886 169.375 158.195 168.48 157.503 167.586C156.812 166.691 156.08 165.836 156.08 165.836C156.08 165.836 154.371 164.372 152.663 163.03C151.808 162.338 150.954 161.687 150.222 161.24C149.531 160.833 149.042 160.508 149.042 160.508C149.042 160.508 149.49 160.874 150.141 161.362C150.792 161.891 151.564 162.664 152.378 163.436C153.964 164.942 155.51 166.569 155.51 166.569Z" fill="#4F4F4F"/>
<path d="M202.289 242.107C201.679 242.188 200.947 242.717 200.418 243.571C199.889 244.425 199.482 245.402 199.238 246.053C198.954 246.703 198.75 247.151 198.75 247.151C198.75 247.151 198.669 247.395 198.506 247.761C198.343 248.127 198.099 248.656 197.774 249.225C197.082 250.405 195.984 251.747 194.642 252.886C193.34 254.066 191.998 255.164 191.062 256.059C190.127 256.995 189.557 257.686 189.557 257.686C189.557 257.686 190.167 257.035 191.144 256.222C192.12 255.408 193.503 254.432 194.886 253.374C196.269 252.317 197.571 251.097 198.384 249.876C198.791 249.266 199.076 248.737 199.279 248.33C199.482 247.924 199.564 247.68 199.564 247.68C199.564 247.68 199.727 247.151 199.93 246.419C200.133 245.686 200.377 244.71 200.784 243.897C201.15 243.083 201.76 242.432 202.289 242.229C202.574 242.147 202.818 242.107 202.981 242.147C203.143 242.188 203.225 242.229 203.225 242.229C203.225 242.229 203.143 242.188 202.981 242.107C202.859 242.107 202.574 242.066 202.289 242.107Z" fill="#4F4F4F"/>
<path d="M180.852 297.957C180.527 299.015 179.917 300.357 179.144 301.577C178.371 302.798 177.435 303.896 176.744 304.75C176.052 305.604 175.605 306.174 175.605 306.174C175.605 306.174 174.873 307.435 174.14 308.737C173.774 309.387 173.449 310.038 173.205 310.567C173.001 311.096 172.839 311.421 172.839 311.421C172.839 311.421 173.571 310.16 174.507 309.021C175.361 307.964 176.337 306.825 176.337 306.825C176.337 306.825 176.744 306.215 177.354 305.32C177.964 304.384 178.818 303.204 179.551 301.862C180.242 300.52 180.771 299.096 181.015 297.998C181.056 297.713 181.137 297.469 181.178 297.265C181.218 297.062 181.218 296.859 181.259 296.696C181.3 296.371 181.3 296.208 181.3 296.208C181.3 296.208 181.259 296.371 181.218 296.696C181.178 296.859 181.137 297.062 181.096 297.265C181.015 297.428 180.934 297.672 180.852 297.957Z" fill="#4F4F4F"/>
<path d="M143.836 215.91C143.836 215.91 144.324 216.358 144.812 216.846C145.3 217.293 145.788 217.782 145.788 217.782C145.788 217.782 145.503 217.171 145.219 216.602C144.934 216.032 144.649 215.422 144.649 215.422C144.649 215.422 143.795 214.446 142.941 213.47C142.534 212.982 142.046 212.534 141.72 212.168C141.395 211.843 141.151 211.599 141.151 211.599C141.151 211.599 141.314 211.843 141.598 212.249C141.883 212.656 142.249 213.144 142.575 213.714C143.185 214.812 143.836 215.91 143.836 215.91Z" fill="#4F4F4F"/>
<path d="M146.764 319.557C146.317 320.004 145.91 320.492 145.625 320.858C145.341 321.225 145.178 321.469 145.178 321.469C145.178 321.469 144.893 321.997 144.446 322.77C143.958 323.543 143.347 324.56 142.656 325.536C141.964 326.513 141.232 327.489 140.5 328.058C139.809 328.669 139.28 328.994 139.28 328.994C139.28 328.994 139.809 328.709 140.581 328.18C141.354 327.692 142.209 326.797 143.022 325.862C143.836 324.926 144.568 323.95 145.137 323.218C145.707 322.486 146.032 321.957 146.032 321.957C146.032 321.957 146.154 321.672 146.358 321.265C146.561 320.858 146.805 320.33 147.171 319.882C147.497 319.394 147.944 318.987 148.31 318.825C148.514 318.743 148.676 318.703 148.798 318.703C148.92 318.703 149.002 318.703 149.002 318.703C149.002 318.703 148.92 318.703 148.798 318.662C148.676 318.662 148.473 318.662 148.269 318.703C147.781 318.784 147.252 319.109 146.764 319.557Z" fill="#4F4F4F"/>
<path d="M142.493 358.241C142.249 357.956 141.924 357.753 141.68 357.59C141.435 357.427 141.273 357.346 141.273 357.346C141.273 357.346 140.866 357.265 140.297 357.183C139.727 357.102 138.954 356.98 138.222 356.817C137.49 356.655 136.88 356.37 136.514 355.963C136.432 355.882 136.351 355.76 136.269 355.719C136.229 355.638 136.188 355.556 136.147 355.475C136.066 355.353 136.025 355.272 136.025 355.272C136.025 355.272 136.066 355.353 136.107 355.516C136.107 355.597 136.147 355.678 136.188 355.8C136.229 355.882 136.31 356.004 136.351 356.126C136.636 356.614 137.246 357.061 137.937 357.346C138.629 357.672 139.32 357.875 139.849 358.078C140.378 358.282 140.663 358.404 140.663 358.404C140.663 358.404 141.435 358.485 142.046 358.729C142.371 358.851 142.656 359.055 142.819 359.258C142.981 359.461 143.063 359.624 143.063 359.624C143.063 359.624 143.022 359.421 142.941 359.177C142.941 358.811 142.778 358.485 142.493 358.241Z" fill="#4F4F4F"/>
<path d="M182.276 55.9665C182.276 56.0072 182.317 56.0886 182.317 56.1293C182.479 56.7394 182.642 57.3089 182.886 57.8784C183.089 58.3258 183.293 58.7733 183.578 59.1801C184.513 60.6851 185.693 61.9055 186.913 63.0037C189.435 65.1597 192.16 66.8274 194.235 69.4715L194.601 69.9189L194.805 69.3901C195.537 67.5596 196.228 65.6478 196.838 63.7359C197.164 62.7597 197.449 61.8241 197.693 60.8072C197.937 59.8309 198.221 58.814 198.343 57.7157C198.343 57.7157 198.384 57.2682 198.343 56.4547C198.303 55.7632 198.059 54.7869 197.693 53.8106C197.733 53.8106 197.774 53.8106 197.855 53.8106C197.937 53.8106 197.977 53.892 198.059 53.9327C198.221 54.0547 198.343 54.1767 198.465 54.3801C198.628 54.7055 198.791 55.1123 198.954 55.5191C199.32 56.5767 199.604 57.8784 199.645 59.1801C199.767 61.0106 199.564 62.8004 199.36 64.1834C199.157 65.5258 198.994 66.4207 198.994 66.4207C198.994 66.4207 198.832 68.2511 198.547 70.041C198.465 70.4884 198.384 70.9359 198.303 71.3426C198.221 71.7494 198.099 72.1155 197.896 72.2782C197.693 72.4003 197.408 72.2375 197.327 72.1155C197.245 71.9528 197.286 71.8308 197.286 71.8308C197.286 71.8308 197.204 71.9528 197.286 72.1562C197.367 72.3189 197.611 72.6036 197.977 72.4816C198.181 72.4003 198.343 72.1562 198.425 71.9121C198.465 71.7901 198.547 71.6681 198.588 71.5053C198.669 71.2613 198.75 71.0172 198.832 70.7732C198.872 70.6104 198.954 70.4477 198.994 70.2443C199.157 69.6749 199.32 69.1054 199.442 68.5766C199.726 67.519 199.889 66.7054 199.889 66.7054C199.889 66.7054 200.011 65.7698 200.133 64.3868C200.255 63.0038 200.337 61.0919 200.133 59.2207C199.93 57.3089 199.32 55.4784 198.588 54.3394C198.425 54.0547 198.181 53.8513 197.977 53.77L197.937 53.7293C197.855 53.7293 197.815 53.7293 197.733 53.7293C197.693 53.5666 197.611 53.4445 197.571 53.2818C197.449 53.0378 197.327 52.753 197.204 52.509C196.635 51.2886 195.984 49.9056 195.293 48.4412C194.723 47.2616 194.113 46.0412 193.462 44.8209C192.445 42.8684 191.306 40.9972 190.208 39.3701C189.638 38.5159 189.028 37.7023 188.54 37.0108C187.767 36.0346 187.116 35.2617 186.628 34.7329C186.14 34.2041 185.855 33.9193 185.855 33.9193C185.855 33.9193 186.14 34.2448 186.588 34.7736C187.035 35.3024 187.686 36.1159 188.418 37.1329C188.662 37.4583 188.947 37.8651 189.191 38.2718C190.452 40.1837 191.876 42.543 193.055 45.1056C194.52 48.1565 195.903 51.3293 196.838 53.6886C197.286 54.8682 197.489 55.8445 197.53 56.536C197.571 57.2275 197.489 57.6343 197.489 57.6343C197.408 58.6106 197.164 59.5462 196.92 60.5224C196.676 61.4987 196.432 62.4749 196.147 63.4105C195.618 65.1597 195.008 66.8681 194.398 68.5359C192.242 66.0952 189.638 64.5088 187.279 62.5563C186.059 61.4987 184.879 60.3597 183.984 58.936C183.049 57.553 182.52 55.8852 182.398 54.1767C182.113 50.7191 182.561 47.2209 183.496 43.9667C183.944 42.3396 184.635 40.7938 185.001 39.1261C185.164 38.4752 185.245 37.8244 185.286 37.1329C185.367 36.0752 185.367 34.977 185.327 33.8787C185.327 35.4244 185.327 36.9702 185.042 38.4752C185.001 38.6786 184.961 38.882 184.92 39.0854C184.513 40.7532 183.781 42.2582 183.333 43.8853C182.398 46.9768 181.91 50.2717 182.032 53.6073C182.032 53.8106 182.032 53.9733 182.032 54.1767C182.032 54.7462 182.154 55.3564 182.276 55.9665Z" fill="#4F4F4F"/>
<path d="M188.988 68.4545C189.191 68.7392 189.313 68.8612 189.313 68.8612C189.313 68.8612 189.598 69.146 190.005 69.5934C190.411 70.0409 190.981 70.6104 191.591 71.1799C192.201 71.7087 192.893 72.1561 193.421 72.3595C193.503 72.4002 193.543 72.4002 193.584 72.4002C193.747 72.4815 193.95 72.5222 194.072 72.5629C194.235 72.6036 194.316 72.6036 194.316 72.6036C194.316 72.6036 193.95 72.4815 193.462 72.1968C192.974 71.912 192.364 71.3832 191.876 70.7731C191.347 70.1629 190.899 69.5121 190.533 68.9833C190.167 68.4951 189.923 68.129 189.923 68.129C189.923 68.129 189.801 67.9663 189.516 67.7223C189.272 67.4782 188.906 67.1121 188.459 66.7053C187.523 65.8918 186.262 65.0376 185.123 63.9799C184.635 63.5325 184.188 63.0444 183.822 62.5155C183.293 61.7834 182.886 61.0105 182.683 60.319C182.52 59.7088 182.439 59.18 182.439 58.8139C182.439 58.6105 182.439 58.4885 182.439 58.3664C182.439 58.2851 182.439 58.2037 182.439 58.2037C182.439 58.2037 182.398 58.4071 182.357 58.7732C182.316 59.1393 182.357 59.6681 182.479 60.319C182.723 61.58 183.618 63.1257 184.757 64.3054C185.855 65.5257 187.116 66.5019 187.93 67.3562C188.459 67.8443 188.784 68.2104 188.988 68.4545Z" fill="#4F4F4F"/>
<path d="M192.079 103.519L192.608 104.942C192.893 105.674 193.34 106.203 193.788 106.651L195.496 109.051L196.391 110.027L197.245 110.922C198.344 113.078 199.401 114.99 199.401 114.99C199.401 114.99 198.222 112.386 197.164 109.742C197.001 109.335 196.838 108.929 196.676 108.522C196.472 107.505 196.472 106.407 196.676 105.349C196.432 105.959 196.31 106.651 196.228 107.342C195.618 105.674 195.171 104.413 195.171 104.413C195.171 104.413 194.561 103.112 193.95 101.851C193.34 100.549 192.771 99.2474 192.771 99.2474C192.771 99.2474 193.137 100.63 193.544 102.054C193.95 103.437 194.357 104.82 194.357 104.82C194.357 104.82 194.927 106.122 195.7 107.749L193.055 104.658L192.079 103.519Z" fill="#4F4F4F"/>
<path d="M111.416 194.27C111.456 193.253 111.497 192.195 111.456 191.178C111.416 190.487 111.294 189.836 111.172 189.145C110.887 187.721 110.439 186.297 109.951 184.873C110.521 186.704 111.05 188.534 111.253 190.406C111.294 190.65 111.334 190.934 111.334 191.178C111.456 193.253 111.09 195.287 110.927 197.361C110.805 199.436 110.805 201.511 111.05 203.544C111.212 205.375 111.456 207.205 111.863 208.995C111.904 209.239 111.944 209.483 112.026 209.727C112.229 210.419 112.514 211.11 112.799 211.802C112.839 211.843 112.839 211.883 112.88 211.965C113.002 212.209 113.083 212.453 113.246 212.656C113.45 213.063 113.694 213.429 113.938 213.836C114.263 214.324 114.629 214.812 115.036 215.259C116.419 216.805 118.127 218.066 119.877 219.124C123.293 221.32 126.954 222.948 129.924 225.998L130.453 226.527L130.656 225.836C131.348 223.436 131.917 220.954 132.405 218.392C132.649 217.09 132.893 215.829 132.975 214.527C133.097 213.226 133.259 211.883 133.137 210.46C133.137 210.46 133.097 209.849 132.893 208.792C132.69 207.897 132.243 206.717 131.47 205.497C131.51 205.456 131.592 205.456 131.673 205.497C131.754 205.497 131.836 205.578 131.917 205.619C132.12 205.741 132.365 205.904 132.527 206.107C132.812 206.514 133.097 206.961 133.381 207.49C134.073 208.792 134.683 210.419 135.049 212.127C135.293 213.307 135.456 214.487 135.537 215.585C135.578 216.724 135.578 217.741 135.537 218.636C135.497 220.426 135.415 221.565 135.415 221.565C135.415 221.565 135.537 223.924 135.334 226.283C135.253 226.853 135.212 227.463 135.131 227.992C135.09 228.52 134.968 229.008 134.683 229.212C134.398 229.415 134.073 229.212 133.951 229.049C133.829 228.846 133.87 228.683 133.87 228.683C133.87 228.683 133.788 228.846 133.91 229.09C134.032 229.334 134.358 229.619 134.805 229.415C135.049 229.293 135.253 228.968 135.375 228.642C135.456 228.48 135.497 228.317 135.537 228.114C135.578 227.87 135.659 227.625 135.7 227.422C135.781 227.097 135.822 226.812 135.903 226.486V226.446C135.903 226.405 135.903 226.364 135.944 226.324C136.026 225.876 136.107 225.47 136.188 225.063C136.31 224.412 136.392 223.761 136.432 223.273C136.514 222.378 136.595 221.809 136.595 221.809C136.595 221.809 136.595 220.588 136.554 218.758C136.514 216.927 136.351 214.446 135.619 212.046C134.968 209.605 133.829 207.327 132.69 205.985C132.405 205.7 132.08 205.456 131.754 205.416C131.714 205.416 131.714 205.375 131.673 205.375C131.592 205.375 131.51 205.375 131.429 205.416C131.307 205.253 131.226 205.049 131.104 204.887C130.9 204.602 130.656 204.277 130.453 203.951C129.395 202.446 128.215 200.819 126.914 199.111C125.937 197.809 124.88 196.507 123.7 195.287C122.236 193.66 120.731 192.114 119.307 190.731C118.86 190.324 118.412 189.958 117.924 189.592C116.907 188.738 115.931 188.006 115.036 187.355C113.775 186.46 112.677 185.809 111.904 185.362C111.131 184.955 110.683 184.711 110.683 184.711C110.683 184.711 111.131 184.955 111.863 185.443C112.595 185.931 113.694 186.623 114.914 187.558C115.321 187.843 115.768 188.209 116.175 188.575C117.11 189.307 118.046 190.121 119.022 191.056C120.405 192.48 121.829 194.067 123.253 195.734C123.944 196.589 124.636 197.443 125.327 198.256C125.937 199.151 126.548 200.005 127.158 200.819C128.337 202.568 129.395 204.155 130.331 205.497C131.266 206.88 131.632 208.1 131.836 208.995C131.998 209.89 131.998 210.419 131.998 210.419C132.08 211.68 131.998 212.941 131.876 214.243C131.754 215.504 131.632 216.805 131.388 218.066C130.981 220.344 130.493 222.581 129.924 224.778C126.832 221.971 123.415 220.426 120.161 218.514C118.412 217.497 116.785 216.317 115.402 214.853C114.71 214.121 114.141 213.307 113.653 212.412C113.124 211.558 112.717 210.622 112.433 209.646C111.863 207.693 111.578 205.619 111.416 203.585C111.172 201.551 111.09 199.477 111.172 197.443C111.212 196.344 111.334 195.328 111.416 194.27Z" fill="#4F4F4F"/>
<path d="M123.619 225.917C123.619 225.917 124.026 226.243 124.595 226.69C125.206 227.178 125.978 227.829 126.751 228.439C127.565 229.049 128.46 229.537 129.151 229.741C129.233 229.781 129.314 229.782 129.395 229.822C129.639 229.904 129.843 229.944 129.965 229.944C130.168 229.985 130.29 229.985 130.29 229.985C130.29 229.985 129.843 229.863 129.192 229.537C128.541 229.212 127.768 228.602 127.077 227.91C126.345 227.137 125.694 226.405 125.165 225.876C124.636 225.307 124.27 224.941 124.27 224.941C124.27 224.941 124.067 224.778 123.741 224.493C123.416 224.209 122.887 223.802 122.277 223.395C121.016 222.541 119.307 221.687 117.762 220.629C117.07 220.182 116.419 219.653 115.85 219.083C115.077 218.351 114.467 217.538 114.101 216.765C113.775 216.114 113.612 215.504 113.572 215.056C113.531 214.853 113.531 214.649 113.531 214.568C113.531 214.446 113.531 214.405 113.531 214.405C113.531 214.405 113.49 214.649 113.531 215.097C113.572 215.544 113.653 216.155 113.938 216.887C114.467 218.31 115.85 219.938 117.436 221.158C118.982 222.419 120.65 223.395 121.789 224.331C122.358 224.778 122.806 225.185 123.131 225.47C123.456 225.754 123.619 225.917 123.619 225.917Z" fill="#4F4F4F"/>
<path d="M80.094 359.461C81.5177 357.387 83.7957 354.661 86.7244 352.099C91.6464 347.665 97.9921 343.801 102.711 339.773C102.792 339.692 102.914 339.611 102.995 339.529C103.036 339.529 103.117 339.57 103.199 339.611C102.995 339.773 102.873 339.855 102.873 339.855C102.873 339.855 102.995 339.773 103.24 339.611C103.524 339.692 103.931 339.855 104.501 340.058C105.436 340.343 106.778 340.75 108.121 340.912C108.894 341.034 109.707 341.075 110.48 341.075L111.416 342.458L112.717 342.621L112.27 341.401L111.416 341.075C111.619 341.075 111.863 341.034 112.067 341.034C113.165 340.912 113.897 340.709 113.897 340.709C113.897 340.709 115.361 340.099 116.704 339.123C117.355 338.634 117.965 338.065 118.412 337.658C118.819 337.211 119.104 336.885 119.104 336.885C119.104 336.885 118.778 337.129 118.29 337.496C117.802 337.821 117.151 338.228 116.46 338.553C115.077 339.204 113.694 339.489 113.694 339.489C113.694 339.489 113.531 339.57 113.205 339.651C113.287 339.611 113.328 339.57 113.328 339.57C113.328 339.57 113.531 339.204 113.734 338.797C113.938 338.431 114.182 338.024 114.182 338.024C114.182 338.024 113.775 338.146 113.368 338.309C112.961 338.472 112.555 338.675 112.555 338.675C112.555 338.675 112.067 339.326 111.66 340.058C110.683 340.262 109.422 340.424 108.202 340.384C106.86 340.343 105.517 340.14 104.541 339.936C103.972 339.814 103.565 339.692 103.28 339.651C103.402 339.57 103.524 339.489 103.646 339.367C104.134 339.041 104.785 338.553 105.599 337.984C106.372 337.455 107.267 336.763 108.324 336.153C109.504 335.421 110.887 334.729 112.392 334.363C112.595 334.323 112.839 334.282 113.043 334.241C114.222 333.997 115.443 333.835 116.622 333.713C118.005 333.55 119.348 333.346 120.446 333.102C122.683 332.614 124.188 332.085 124.188 332.085C126.466 331.272 128.622 330.174 130.778 328.953C129.314 330.54 127.931 332.167 126.466 333.794C124.066 336.56 121.544 339.448 118.616 341.767C115.85 344.045 112.595 345.631 109.463 345.997C109.341 345.997 109.219 346.038 109.056 346.038C107.429 346.201 105.843 346.038 104.623 345.143C103.565 344.411 103.036 343.068 103.199 341.807C103.239 341.604 103.24 341.441 103.28 341.238C103.199 341.401 103.199 341.604 103.199 341.767C102.955 343.068 103.484 344.451 104.541 345.265C105.761 346.2 107.389 346.404 109.056 346.282C112.311 346.119 115.85 344.492 118.86 342.173C119.185 341.929 119.51 341.645 119.836 341.36C120.161 341.075 120.527 340.79 120.853 340.506C123.049 338.553 125.043 336.397 126.954 334.282C129.436 331.557 131.673 328.913 134.398 326.675L133.992 325.78C130.697 327.855 127.402 329.563 124.026 330.743C124.026 330.743 123.334 331.028 122.155 331.435C121.666 331.597 121.056 331.801 120.405 331.963C119.836 332.126 119.226 332.289 118.616 332.411C118.005 332.533 117.355 332.696 116.663 332.818C115.28 333.062 113.775 333.306 112.311 333.753C110.846 334.241 109.504 334.974 108.365 335.706C107.592 336.235 106.941 336.723 106.331 337.211C106.046 337.414 105.762 337.658 105.517 337.821C104.704 338.431 104.094 338.96 103.646 339.285C103.484 339.407 103.362 339.489 103.28 339.57C103.158 339.529 103.077 339.529 103.036 339.529C103.362 339.245 103.646 338.96 103.931 338.716C104.378 338.309 104.785 337.943 105.192 337.536C110.195 332.574 114.507 324.641 118.209 319.353C120.121 316.669 121.463 314.35 122.602 312.764C123.7 311.137 124.31 310.242 124.31 310.242C124.31 310.242 124.636 309.794 125.083 308.94C125.571 308.086 126.263 306.906 127.077 305.442C127.89 303.977 128.948 302.309 129.802 300.357C130.656 298.404 131.51 296.289 132.324 294.133C133.178 291.977 133.666 289.74 134.236 287.666C134.52 286.445 134.805 285.266 135.09 284.167C135.253 283.354 135.415 282.581 135.537 281.889C135.863 279.896 136.107 278.31 136.229 277.293C136.432 276.479 136.636 275.503 136.88 274.323C137.409 271.273 137.937 267.164 138.181 263.015C138.263 258.866 138.344 254.676 137.937 251.544C137.612 248.412 137.327 246.378 137.327 246.378C137.327 246.378 137.287 246.134 137.205 245.686C137.124 245.239 137.002 244.588 136.798 243.856C136.392 242.351 135.863 240.358 135.293 238.364C135.009 237.388 134.683 236.412 134.398 235.476C134.032 234.581 133.748 233.768 133.463 233.036C133.056 232.019 132.731 231.246 132.609 230.88C132.568 230.758 132.527 230.676 132.527 230.676C132.527 230.676 132.568 230.758 132.609 230.88C132.731 231.246 132.975 232.019 133.341 233.076C133.585 233.809 133.829 234.663 134.114 235.598C134.317 236.534 134.561 237.551 134.805 238.527C135.253 240.52 135.659 242.554 135.904 244.059C136.066 244.832 136.148 245.442 136.188 245.89C136.229 246.337 136.27 246.581 136.27 246.581C136.27 246.581 136.595 248.575 137.043 251.666C137.531 254.717 137.612 258.866 137.653 262.974C137.571 267.083 137.165 271.232 136.758 274.283C136.514 275.788 136.27 277.089 136.066 277.944C135.904 278.839 135.781 279.327 135.781 279.327C135.781 279.327 135.904 278.839 136.107 277.944C135.985 278.554 135.863 279.327 135.7 280.181C135.619 280.669 135.497 281.198 135.415 281.808C135.131 283.476 134.52 285.428 133.992 287.462V287.503C133.382 289.577 132.812 291.774 131.917 293.849C131.063 295.964 130.168 298.038 129.232 299.91C128.378 301.781 127.199 303.408 126.385 304.831C125.531 306.255 124.799 307.435 124.31 308.248C123.822 309.062 123.497 309.509 123.497 309.509C123.497 309.509 122.887 310.445 121.829 312.072C120.731 313.659 119.429 316.058 117.558 318.784C115.687 321.469 113.816 324.845 111.66 328.14C109.545 331.435 107.307 334.607 104.907 337.129C100.392 341.97 92.5006 346.607 86.7651 351.977C83.877 354.58 81.5991 357.346 80.216 359.461C79.4838 360.478 79.0364 361.373 78.6703 361.983C78.3449 362.594 78.1415 362.878 78.1415 362.878C78.1415 362.878 78.3042 362.553 78.6703 361.983C78.8737 361.373 79.3618 360.478 80.094 359.461Z" fill="#4F4F4F"/>
<path d="M135.741 277.944C135.741 277.944 135.782 277.537 135.863 276.845C135.904 276.154 135.985 275.137 135.863 273.957C135.619 271.557 134.561 268.547 133.138 265.944C131.795 263.3 129.802 261.022 128.541 259.313C127.239 257.605 126.426 256.466 126.426 256.466C125.124 254.676 123.7 252.805 122.805 250.73L121.911 251.137C122.439 252.642 122.846 254.229 123.009 255.856C123.009 256.018 123.009 256.222 123.049 256.385C123.172 257.849 123.212 259.313 123.212 260.778C123.375 264.113 123.05 267.449 123.7 270.784C124.026 272.289 124.351 273.794 124.961 275.178C125.002 275.3 125.083 275.462 125.124 275.584C125.165 275.666 125.246 275.747 125.287 275.869C125.938 277.252 126.832 278.513 127.809 279.693C129.924 282.174 131.917 284.574 133.91 287.177C131.999 284.533 130.087 282.011 128.012 279.489C127.036 278.228 126.1 276.886 125.49 275.381C124.88 273.917 124.514 272.289 124.229 270.662C123.66 267.367 124.066 264.113 123.985 260.737C123.985 259.069 123.985 257.401 123.904 255.693C123.863 255.246 123.782 254.798 123.7 254.31C124.311 255.286 124.961 256.262 125.612 257.198C125.612 257.198 126.507 258.337 127.89 259.964C129.273 261.632 131.266 263.747 132.731 266.228C133.951 268.181 134.887 270.378 135.415 272.371C135.537 272.9 135.7 273.388 135.741 273.876C135.904 275.015 135.863 276.032 135.863 276.723C135.782 277.537 135.741 277.944 135.741 277.944Z" fill="#4F4F4F"/>
<path d="M127.646 269.727L126.588 268.222L127.076 270.052C127.32 270.988 127.809 271.72 128.337 272.33C128.419 272.493 128.541 272.655 128.622 272.859C129.314 274.201 130.005 275.544 130.005 275.544L130.941 276.927L131.795 278.228C132.202 279.489 132.609 280.669 132.934 281.605C133.381 282.866 133.625 283.72 133.625 283.72C133.625 283.72 133.463 282.825 133.097 281.523C132.771 280.221 132.324 278.432 131.917 276.723C131.795 276.194 131.673 275.625 131.592 275.096C131.551 273.794 131.714 272.452 132.12 271.191C131.754 271.923 131.47 272.737 131.266 273.591C130.778 271.435 130.371 269.767 130.371 269.767C130.371 269.767 129.761 268.1 129.192 266.432C128.907 265.578 128.622 264.764 128.419 264.154C128.175 263.544 128.053 263.137 128.053 263.137C128.053 263.137 128.134 263.584 128.256 264.235C128.378 264.886 128.5 265.781 128.622 266.635C128.948 268.384 129.232 270.174 129.232 270.174C129.232 270.174 129.802 271.842 130.453 273.998C130.168 273.51 129.761 272.9 129.354 272.289C128.5 270.947 127.646 269.727 127.646 269.727Z" fill="#4F4F4F"/>
</svg>
