<svg width="21" height="20" viewBox="0 0 21 20" fill="none" xmlns="http://www.w3.org/2000/svg">
<path d="M18.4398 10.9999C18.2198 10.9999 17.9898 10.9299 17.7698 10.8799C17.3243 10.7817 16.8864 10.6514 16.4598 10.4899C15.9959 10.3211 15.4859 10.3299 15.0281 10.5145C14.5702 10.6991 14.1968 11.0465 13.9798 11.4899L13.7598 11.9399C12.7858 11.398 11.8907 10.7251 11.0998 9.93987C10.3145 9.14889 9.64159 8.25387 9.09977 7.27987L9.51977 6.99987C9.96313 6.78279 10.3105 6.4094 10.4952 5.95156C10.6798 5.49372 10.6885 4.98378 10.5198 4.51987C10.361 4.09229 10.2307 3.65467 10.1298 3.20987C10.0798 2.98987 10.0398 2.75987 10.0098 2.52987C9.88833 1.82549 9.51939 1.18761 8.96939 0.731107C8.41938 0.274605 7.72446 0.0294769 7.00977 0.0398681H4.00977C3.5788 0.0358215 3.15202 0.124682 2.75848 0.300399C2.36493 0.476116 2.01388 0.734564 1.7292 1.05815C1.44452 1.38174 1.2329 1.76286 1.10875 2.17558C0.984607 2.5883 0.950844 3.02293 1.00977 3.44987C1.5425 7.63925 3.45579 11.5317 6.44742 14.5125C9.43904 17.4933 13.3385 19.3924 17.5298 19.9099H17.9098C18.6472 19.911 19.3592 19.6404 19.9098 19.1499C20.2261 18.8669 20.4789 18.52 20.6512 18.1322C20.8236 17.7443 20.9117 17.3243 20.9098 16.8999V13.8999C20.8975 13.2053 20.6446 12.5364 20.1941 12.0075C19.7436 11.4786 19.1236 11.1225 18.4398 10.9999ZM18.9398 16.9999C18.9396 17.1419 18.9092 17.2822 18.8505 17.4115C18.7919 17.5408 18.7064 17.6562 18.5998 17.7499C18.488 17.8463 18.3574 17.9184 18.2162 17.9615C18.075 18.0045 17.9263 18.0176 17.7798 17.9999C14.0347 17.5197 10.556 15.8064 7.89248 13.1302C5.22896 10.454 3.53218 6.96721 3.06977 3.21987C3.05385 3.07339 3.0678 2.9252 3.11077 2.78426C3.15374 2.64332 3.22484 2.51256 3.31977 2.39987C3.41348 2.2932 3.52883 2.20771 3.65814 2.14909C3.78746 2.09046 3.92778 2.06005 4.06977 2.05987H7.06977C7.30231 2.05469 7.52939 2.13075 7.71191 2.27494C7.89443 2.41913 8.02098 2.62244 8.06977 2.84987C8.10977 3.1232 8.15977 3.3932 8.21977 3.65987C8.33529 4.18701 8.48903 4.70505 8.67977 5.20987L7.27977 5.85987C7.16006 5.91479 7.05239 5.99282 6.96292 6.08946C6.87346 6.18611 6.80397 6.29948 6.75844 6.42306C6.71291 6.54664 6.69224 6.678 6.69761 6.80959C6.70299 6.94118 6.73431 7.07041 6.78977 7.18987C8.22897 10.2726 10.707 12.7507 13.7898 14.1899C14.0332 14.2899 14.3063 14.2899 14.5498 14.1899C14.6745 14.1453 14.7891 14.0763 14.8869 13.9871C14.9848 13.8978 15.0639 13.79 15.1198 13.6699L15.7398 12.2699C16.2567 12.4547 16.7844 12.6084 17.3198 12.7299C17.5864 12.7899 17.8564 12.8399 18.1298 12.8799C18.3572 12.9287 18.5605 13.0552 18.7047 13.2377C18.8489 13.4202 18.9249 13.6473 18.9198 13.8799L18.9398 16.9999Z" fill="#FFAF00"/>
</svg>
